<svg xmlns="http://www.w3.org/2000/svg" width="2462" height="570" version="1"><path d="M4 587l5-1-5 1zm268 0h3-3zm8 0c57-52 145-81 189-31 47 11 97-23 130 24 55-46 122 0 173-41-32-23-44-58-16-92-59-51-137 85-186-8-56 6-4-50-71-51-28 27-92-4-42-12-11 6 54-22 8 7 62-26 93 3 154 9 22-30 149-82 48-88-41 15-73 40-105-6-36 11-101 6-154-9-33-17-68-61-10-17 22 13 78 27 54-6 63 22 126-24 106-77 23-58-113-44-47-80-25-31-25-86-92-79 31 7-164-55-46-41 52 26 113-8 178 0 75 35 152-20 239-9 27 12 52 44 63 13 42-25 144 17 163-2 226-8 453 1 679-3 89 3 179-3 269 1 10 3 170-13 153 23-61-19-77 27-83 64-28 36 38 29 8 75 59 33 144-8 182-15 43 27 114 150 159 49 15-48 98-101 32-31-31 44-76 128-122 46-66-66-159-14-238-26-63-8-110 4-164 9 15 41-63 41-14 88 21-6 28 27 53 14-29 14-109 3-63 55-23 72 87 68 113 110-45-7-109-15-47 39-11-17 55 20 63-4 52-14 117-53 83 23-13-40-84 11-127 10 40 64 98-16 113 22 43 10 79 55 133 46-62 8-130-21-177-4-48 10-91 0-27-5 29-45-110-27-44 10-67-10-157 5-191-16 70 35-185 5-114 16H646c1-20-132 27-184-19-21-45-93 11-93-2-28 13-58 23-89 21zm1552-1l-8-4 8 4zm145 0h-2 2zm155-1c-5-5-2 4 0 0zm5 1c-2-8-5 5 0 0zm54 0h-2 2zm-1580-3c-4-5-5 5 0 0zm6-1c1-7-5 6 0 0zm1217 0c-2-4-2 3 0 0zm-1198-1c-2-4-1 3 0 0zm1423-3c-3-6-3 6 0 0zm-1481-6c-3-5-2 4 0 0zm1176-2c-7-2 0 6 0 0zm47-4c36-30 144 27 106-51-35-37-44-31-77-24 2-52-137-32-112 37 26 7 57 53 83 38zm114-20c2-4 2 3 0 0zm-87-5c-6-10 10 7 0 0zm-86-2c-11-19 16-3 0 0zm115-13c-19-30 50-6 0 0zm-18-1c2-4 2 3 0 0zm0-12c3-4 3 3 0 0zm8-3c-3-14 13 7 0 0zm32-5c3-4 2 3 0 0zm-40-2c0-7 6 7 0 0zm-2-5c-1-7 5 6 0 0zm-7-2c4-5 3 4 0 0zm-4-2c-4-5 5-2 0 0zm-94-7c-2-6 7 1 0 0zm-5-2c-3-15 11 5 0 0zm82-1c-18-19 19 7 0 0zm-66-2c0-10 5 6 0 0zm75-3c2-6 4 6 0 0zm107 87c-1-6-8 4 0 0zm-10-1c-3-5-2 4 0 0zm-173-3c-9-7 4 8 0 0zm-169-2c-10-6 3 7 0 0zm-9-6c36-14-14-22-4 4l3 1 1-5zm-3-1c-6-9 5 1 0 0zm28 6c-6-8-11 5 0 0zm343-1c-2-5-3 4 0 0zm-190-3l-2 2 2-2zm-194-5c-5 1 3 5 0 0zm433 2c-3-5-3 5 0 0zm-54-1c-4-5-4 4 0 0zm87 0c-1-4-2 3 0 0zm65-4c-2-11-2 10 0 0zm-145-1c-3-7-3 8 0 0zm-393 1c-3-5-3 4 0 0zm427-1c-3-9-12 10 0 0zm-422-2c-7-11-8 1 0 0zm-390-2c1-11-7 1 0 0zm393-1c-2-5-2 6 0 0zm-758-4c-7-13-3 14 0 0zm351 3c-2-4-2 3 0 0zm461-2c2-13-19 14 0 0zm-804-1c-8-6-6 6 0 0zm755-2c10-13-25 8 0 0zm-769-4c-6-6 1 7 0 0zm20 0c-12-46 0 21 0 0zm-25 1c-1-4-2 3 0 0zm817-2c-14-9 1 7 0 0zm-804 1c-3-5-4 4 0 0zm353-2l-3 2 3-2zm-348-1c-4-4-2 6 0 0zm794-2c0-10-13 13 0 0zm-815 0c-8-10-9 6 0 0zm779-1c-6-9-2 7 0 0zm-754-1l-7-1 7 1zm785-2c-2-9-3 9 0 0zm-211 0c0-14-11 0 0 0zm-564-3c-3-4-3 3 0 0zm103-3c-4-7-3 9 0 0zm-70 2c-2-7-6 5 0 0zm37-4c-8-5-1 6 0 0zm8 0c-4-13-5 7 0 0zm-120 0c21-26-28 1 0 0zm593-4c0-7-7 9 0 0zm-465 0c-10-12-6 6 0 0zm474-1c-3-11-14 4 0 0zm-572-1c-2-8-2 7 0 0zm557-1c6-8-8 2 0 0zm354 1c-4-5-3 4 0 0zm186-4c-5 2 3 3 0 0zm-974-2c8-11-12 9 0 0zm-70-3c43-17-19-4 0 0zm15-6c0-8 4 4 0 0zm-69 9c10-18-20-4 0 0zm11-1c-4-5-4 6 0 0zm-2-6c6-10-19 12 0 0zm110 1c-3-8-4 6 0 0zm1054 1c-8-12-11 4 0 0zm-1127-6c5-15-14 12 0 0zm79 2c5-7-14 6 0 0zm15 0c-6-12-8 9 0 0zm407 1c-2-4-2 3 0 0zm591 0c-1-4-2 3 0 0zm20-1c-3-4-3 5 0 0zm-619-1h-2 2zm16-2c11-14-17 0 0 0zm-545 0c7-7-12 4 0 0zm47-2c46 3 50-71 19-33 22 15-43 21-19 33zm31-31c2-7 7 2 0 0zm2-9c2-4 2 3 0 0zm457 39c-9-9-5 4 0 0zm-543 0c-2-4-2 3 0 0zm39-2c-3-6-3 6 0 0zm112 0c3-7-8 7 0 0zm-69 0h-2 2zm951-2c22-18-26 8 0 0zm210 2h-2 2zm-716-9c-8-2-1 5 0 0zm-443-3h-2 2zm952-4c0-5-4 3 0 0zm-1221-1c-2-4-1 3 0 0zm-4-3c2-9-15 6 0 0zm1289-2c-13-12-11 2 0 0zm-1283-2c0-12-3 6 0 0zm250-2l-6-1 6 1zm-100-1c17-17-24-4 0 0zm135-4l-3-2 3 2zm795 1l-1-2 1 2zm-832-2c-4-9-7 6 0 0zm1027-2c-5-10-6 6 0 0zm7-1c2-9-13 5 0 0zm-686-4c-27-25-47 0 0 0zm-312-5c-2-6-4 6 0 0zm999-1c-5-4-1 5 0 0zM675 415c-8-5 1 5 0 0zm-5-2c-8-17-3 9 0 0zm13 0c-5-4-1 5 0 0zm1070-1c91-25-65-136-92-80-9 69 60-1 53 66 30 0 17 16 39 14zm22-20c0-6 5 1 0 0zm-98-22c-5-5 5 1 0 0zm38-2c6-13 14 2 0 0zm55-5c-1-6 8 2 0 0zm-61-11c3-5 2 4 0 0zm-39-21c-11-22 13 0 0 0zm44 0c3-4 2 3 0 0zm-34-3c3-4 3 3 0 0zm26-3c2-4 1 3 0 0zm-10-4c1-4 2 3 0 0zm40 88c3-9-11 7 0 0zm165-1h-3 3zm-1224 1c45 5 98-44 30-50-23 9-92 4-67 45 9-1 38-17 37 5zm6-9c4-5 3 4 0 0zm-38-3c3-4 3 5 0 0zm83-1c-6-8 10 1 0 0zm-47-2c5-8 6 3 0 0zm37-1c3-4 3 3 0 0zm-26-4c3-5 2 4 0 0zm28-2l2 1-2-1zm-15-4c-2-10 4 6 0 0zm6-2c2-10 5 2 0 0zm16 1c3-4 3 3 0 0zm-7-3c-5-10 8 4 0 0zm13-4l-3-6 3 6zm-80 0c3-4 3 3 0 0zm26-11c-5-4 8 3 0 0zm1217 43c3-10-11 7 0 0zm-1351-3c-5-3-3 7 0 0zm1184 0c-2-5-2 5 0 0zm-1134-5c-14-28-4 11 0 0zm1293 1c-1-4-2 3 0 0zm-502-8c9-41-9-39 0 0zm-930 4c-1-8-7 6 0 0zm292-4c-1-9-7 10 0 0zm952 2c-2-11-9 4 0 0zm-1068-1c-3-5-2 4 0 0zm-91-1c-5-11-10 10 0 0zm1336-2c-3-3-1 6 0 0zm-1355-2h-2 2zm1015 0c-3-5-4 4 0 0zm-776-1c-2-4-1 3 0 0zm796-4c5-25-19 9 0 0zm-12 2c-3-15-21-2 0 0zm-797-2c2-10-9 10 0 0zm7-7c-8 2 2 4 0 0zm-256-1c-4-12-4 3 0 0zm1027-2c15-6-9-11 0 0zm-46-1c7-18-14 1 0 0zm80-5c-3-15-3 15 0 0zm-741 1c-5-1 4 5 0 0zm7 2c-2-4-2 3 0 0zm719-3v2-2zm4-1h-2 2zm-707-3c-5-5-6 6 0 0zm650 0c60-17-2-32 0 0zm15-17c3-5 4 4 0 0zm35 17c21-5-5-11 0 0zm-28-3c0-18-9 10 0 0zm-685 2c-3-10-8 6 0 0zm-98-5c-5-8-11 10 0 0zm117 0l-3-1 3 1zm928 0c-2-4-1 3 0 0zm-286-2c-1-4-2 3 0 0zm-651-1c-1-6-3 3 0 0zm22-7c-5-4-2 7 0 0zm761-2c-3-8-3 3 0 0zm30-6c-4-6-5 7 0 0zm-13-2c-3-5-3 4 0 0zm226 0c-1-9-9 2 0 0zm-1148-2h-2 2zm-8-4c-3-8-3 8 0 0zm1144-1c-2-4-2 3 0 0zm-341-1c-4-9-10 2 0 0zm337-1c-3-8-3 7 0 0zm-1135-1c15-16-15 5 0 0zm806 1c-2-4-2 3 0 0zm207-3c-5-17-10 6 0 0zm129 2c-3-5-3 4 0 0zm-336-5v3-3zm-904-3c76-30-56-29-5 2l5-2zm-11-6c3-4 2 3 0 0zm8-5c4-6 4 5 0 0zm888 13c-3-8-3 4 0 0zm10-2l-2 2 2-2zm335-2c0-14-15 12 0 0zm-163-1c-5-12-8 3 0 0zm-959-2c-5-5-4 4 0 0zm975-2c-3-4-3 5 0 0zm7-4h-3 3zm-1066-4c-4-14-8 12 0 0zm-94-1c-2-4-2 3 0 0zm-89-4c4-10-8 1 0 0zm250-3c-9-2 0 8 0 0zm-28 1c-3-5-4 4 0 0zm1178 0c-1-4-2 3 0 0zm-1163-2c-1-4-2 3 0 0zm-115-7c-5-4-3 8 0 0zm32 2c2-9-10 3 0 0zm7-4c-7-3 0 8 0 0zm-5-1c-2-5-2 5 0 0zm48-1c61 11 81-106 37-46-36-3-16-18-43 7-38-19-62-22-31 19-15 12 34 20 37 20zm-13-4c3-5 1 4 0 0zm21-1c1-4 2 3 0 0zm5-23c-4-5 5 1 0 0zm20-3c2-8 8 3 0 0zm12 0c4-9 9 7 0 0zm-29-1l2 1-2-1zm-9-2c-6-17 29 2 0 0zm14-1c-6-7 18-7 0 0zm7-1c0-7 8 7 0 0zm-68-1c9-10 4 7 0 0zm82-5l3-2-3 2zm5-6c0-10 17 8 0 0zm10-13c1-4 2 3 0 0zm-236 60c7-9-18 2 0 0zm191 0c-2-4-2 3 0 0zm1122-1c41-30 14-57-26-37 39 19-8 34 26 37zm-2-15c4-7 6 6 0 0zm-5-3c-13-18 46-5 0 0zm-11-18c5-16 12 10 0 0zm15-1c-5-6 14 4 0 0zm-584 35c34-28 25 12 0 0zm564-2c-3-5-2 4 0 0zm-1311-3h-3 3zm17-1c-4-9-4 6 0 0zm1338 1c-3-5-2 4 0 0zm14-2c-3-5-3 6 0 0zm-7-4c38-24 0-45 0 0zm11-21c0-6 6 7 0 0zM388 268c-2-5-3 4 0 0zm1458 0h-2 2zm-1273-1c-4-5-3 4 0 0zm1260 0c-3-9-5 4 0 0zm-1221-3c0-6-5 5 0 0zm1254 1h-2 2zm-1485-2h-2 2zm-6-3v2-2zm1473 1c-4-3 0 5 0 0zm1-6c-2-4-2 3 0 0zm-37-2c-2-4-2 3 0 0zm-43-4l-2 2 2-2zm-1205-2c-3-5-3 4 0 0zm1263-2c-6-8-4 8 0 0zm-1233 0c-1-11-7 6 0 0zm142-2v3-3zm-151-5c-1-6-3 3 0 0zm6-2c-11-10 0 7 0 0zm1229-1c0-7-6 7 0 0zm-1159 0c-1-4-2 3 0 0zm1087-2c-5-9 1 8 0 0zm-1165-1c-7-11-2 9 0 0zm1228-1c-7-2 2 7 0 0zm-1163 1c-2-4-1 3 0 0zm11-1c-1-12-8 4 0 0zm168 0c-7-10-10 4 0 0zm-11-1h-2 2zm-252-2c-3-20-21 7 0 0zm11 0c6-21-18 4 0 0zm65 1c-4-5-3 4 0 0zm1126 0c10-63 2 29 34-21 60-21-11-18-17-12-10-59-35 25-17 33zm35-25c2-7 11-3 0 0zm-6-10c1-6 6 4 0 0zm21 0c3-4 2 3 0 0zM693 227c-4-10-3 6 0 0zm-31 0c-5-5-3 4 0 0zm1083 0c-7-5-9 4 0 0zm-918-1c0-10-10 2 0 0zm922-3c-2-11-3 12 0 0zm-1090 0c18-12-14-1 0 0zm1087-1c-3-5-3 6 0 0zm84-2c-3-3-1 6 0 0zm-1224-1c15-18-20 2 0 0zm-36-1c2-7-8 6 0 0zm115 1c-1-4-2 3 0 0zm1158 0c-1-9-9 2 0 0zm-1229-6h-2 2zm1139-4c-10-10-5 14 0 0zm-852 2c-3-5-3 4 0 0zm13-2c41-5-24-7 0 0zm866 0c-7-9-6 6 0 0zm22 1c-1-4-2 3 0 0zm-1204-3c-3-8-3 9 0 0zm1219-1c7-8-14 6 0 0zm-915-2c40-12-34-10 0 0zm-292 1c-2-4-2 3 0 0zm22-1c17-15-37-19 0 0zm-4-3c4-5 3 4 0 0zm304 3c-1-7-7 2 0 0zm945-1c-2-7-2 5 0 0zm-963-1c-2-5-1 5 0 0zm803-1c-1-5-5 5 0 0zm-827-3c-2-5-3 4 0 0zm825-2c47-22-29-5 0 0zm25-2c-2-4-1 3 0 0zm101-1c-3-5-2 4 0 0zm44-1c-2-4-2 3 0 0zm-60-4c-3-7-1 9 0 0zm-961 2c-1-4-2 3 0 0zm873-1c-1-4-2 4 0 0zm22 1l-1-2 1 2zm-1123-2c-3-6-1 6 0 0zm-67 0c-3-5-2 4 0 0zm81 0h-2 2zm17-2c-18-15-16 5 0 0zm238 0l-4 2 4-2zm826 2c1-25-9-4 0 0zm11-1c-2-4-2 3 0 0zm80-2l-1-2 1 2zm-33-4c8-12-14 6 0 0zm-1120-2c-7-13-8 5 0 0zm8 0l-3-1 3 1zm-25 1c0-6-9 5 0 0zm32-1c-3-6-4 6 0 0zm-116 0h-2 2zm1188-3c-4-9-2 9 0 0zm-1110 1c-4-5-4 4 0 0zm1324 0c-2-4-2 3 0 0zm5-3c34 4-9-12 0 0zm98 0c2-13-16 9 0 0zm-328-1c0-10-8 4 0 0zm-659-3c-4-5-2 7 0 0zm670 1l-3-2 3 2zm6-1c-2-11-5 9 0 0zm-1089 0c-1-4-2 3 0 0zm1333-3c20-10-14-5 0 0zm30-1c-4-5-3 4 0 0zm-305-3c-13-10 4 9 0 0zm-633-1l-6-2 6 2zm19-3c11-12-17 1 0 0zm1087-1l-2 2 2-2zm9-1c4-12-18 12 0 0zm-1105-1c-3-8-3 3 0 0zm1138-2c-22-13-14 5 0 0zm-290-1c-5-5-11 8 0 0zm270 0c-9-5-3 5 0 0zm-265-3c-10 0 4 4 0 0zm10 0c75-15 38-83-2-82-33-56-80-25-119-14-25 13-59 84 4 61 37 10 73 32 117 35zm-63-43c-3-20 12 2 0 0zm97 0c4-5 3 4 0 0zm-153-1h2-2zm6-1c-1-7 5 0 0 0zm-39-4c1-4 2 3 0 0zm-3-5c6-11 3 6 0 0zm95 0c5-11 15 9 0 0zm-90-3c6-19 13 7 0 0zm-2-3c1-4 2 3 0 0zm122-2c-3-27 35 16 0 0zm37 2c3-4 2 3 0 0zm-144-4c3-4 2 3 0 0zm154-4c2-5 2 3 0 0zm-157-1c3-4 3 3 0 0zm171-2c0-6 4 2 0 0zm-146-2l2 1-2-1zm104-4c-35-1 19-22 0 0zm-32-4c3-4 3 3 0 0zm-11-8c10-10-2 9 0 0zm17 1c-2-9 8 2 0 0zm-6-4c4-9 5 9 0 0zm-40-9c2-4 1 3 0 0zm-6-8c5-6 5 5 0 0zm-780 109c-10-10-14 3 0 0zm6 0c-1-4-2 3 0 0zm16-2c-2-6-4 6 0 0zm1099 1c-2-4-2 3 0 0zm-1118-3h-2 2zm-583-5c-15-13-3 12 0 0zm11-4c28-21-36 4 0 0zm-4-7c3-4 3 3 0 0zm-6 5c6-15-13 2 0 0zm1331-11c3-8-8 7 0 0zm-1160-1c-4-4 1 5 0 0zm23 1c-1-4-2 3 0 0zm-17-2c-2-5-6 7 0 0zm22-2c23-24-36-37 27-36-20-74-80 39-27 36zm-4-16l1 1-1-1zm-28-4c4-5 3 4 0 0zm19-21c3-5 3 6 0 0zm-3 41c-2-6 8 1 0 0zm-21-5c-7-4 3 7 0 0zm13 0c-3-7-8 12 0 0zm440 1c-4-9-5 9 0 0zm-432-1c6-7-8 1 0 0zm-18-1c-2-4-2 3 0 0zm143-4h-2 2zm21-3c-11-44-67-70-41-10 7 15 38-2 41 10zm-28-10c2-6 4 6 0 0zm5 0c2-4 2 3 0 0zm7-2c3-9 5 1 0 0zm-15-1c-4-5 5-2 0 0zm-133 12c-7-2 2 7 0 0zm444 1c-3-4-3 3 0 0zm-604-5c-26-18-6 13 0 0zm153-2c-3-5-2 4 0 0zm183-1c-6-20-12 3 0 0zm196-3c-1-4-2 3 0 0zm-334-5c-6-17-13 13 0 0zm339 1h-3 3zm673 0c-2-5-3 4 0 0zM520 90l-5-3 5 3zm175-1h-2 2zm160-2c-5-5-6 6 0 0zm960 0c4-10-10 9 0 0zm203 1c5-9-13 3 0 0zM798 85c-2-4-2 3 0 0zm260-3c-13-15 17-8 0 0zm-543 1c16-31-23-5 0 0zm8 0c-3-6-3 6 0 0zm545 0c-3-4-3 5 0 0zm-274-3l-1 2 1-2zm-165-1c-4-6-3 6 0 0zm74 1c-4-5-4 4 0 0zm91-3l-2-5 2 5zm-157 0c-5-9-4 4 0 0zm7 0c-6-14-11 1 0 0zm23-1c-1-6-4 5 0 0zm394-1c5-14-7 7 0 0zm-220 1c-3-5-3 4 0 0zm208-2c-4-5-2 8 0 0zm19 2c-3-4-3 3 0 0zm-562-4c-2-6-6 9 0 0zm152 1c94-5 10-26 8-26 114-61-139-33-18 1-22 4 8 16 10 25zm-34-45c-1-7 7 2 0 0zm8-13c-4-10 11 5 0 0zm12 56c-2-4-2 3 0 0zm388-1c-2-7-3 7 0 0zm11 0c14-70-76-37-31-15 30-4-5 8 31 15zm-8-11c-30-23 19-15 0 0zm-25-27c4-9 6 4 0 0zm44 39c-7-6-6 4 0 0zm222 0h-2 2zm700 0c-2-4-1 3 0 0zM844 68l-3 2 3-2zm14 2c-1-6-6 4 0 0zm438 0c-4-5-3 4 0 0zm-26-3l-5 1 5-1zm559 1c-1-5-4 6 0 0zm-532-3c41-25-6-52-19-3 2-1 17 11 19 3zm-13-5c5-11 9 5 0 0zm-4-4c3-18 3 8 0 0zm16-9c6-15 1 13 0 0zM826 67c-2-4-1 3 0 0zm495 0l-1-8 1 8zm-275-2c-2-5-2 5 0 0zm788 1c-5-5-3 4 0 0zM787 64c0-8-6 5 0 0zm267 1h-2 2zm15 0c2-5-7 5 0 0zm-538-1c-2-4-2 3 0 0zm1460-2c46-12 49-57 7-53 6-40-60 29-17 42-13 4-4 9 10 11zm5-7c-2-5 7 4 0 0zm-9-5c-6-9 5 1 0 0zm1-15c-2-8 6 0 0 0zm-13-4c3-4 3 3 0 0zm20-5c5-5 5 4 0 0zm-20-5c-2-7 8 6 0 0zm52-2c-5-5 11 4 0 0zm-41-1c2-5 4 4 0 0zm5 0c0-6 5 1 0 0zm23 0c3-5 2 4 0 0zm-30-11c3-5 8 8 0 0zm18-9c-2-6 7 1 0 0zM514 62c-2-4-1 3 0 0zm8-1c-4-12-6 6 0 0zm612 1c2-16-14-5 0 0zm-333-2c-2-8-3 7 0 0zm263 0c-1-6-4 5 0 0zm12 0c29-9-17 0 0 0zm-21-2c5-19-12 2 0 0zm-259-1c-4-8-3 7 0 0zm50 1l-3-3 3 3zm-211-3c6-15-9 9 0 0zm436-3c-9-6-2 11 0 0zm37 4c-3-5-4 4 0 0zm-307-2c-3-4-3 5 0 0zm515 0c3-16-11 5 0 0zm-236-1c5-9-18 5 0 0zm-78-1c4-14-9 4 0 0zm-272-4c-5-5-1 13 0 0zm-256 2c-7-7 3 6 0 0zm1391 0c11-14-8 1 0 0zm-733-2l-4 1 4-1zm-57-3c-11-7 0 9 0 0zm248 3c-2-5-3 4 0 0zm-607-3c-3-8-5 10 0 0zm-237 0c-4-5-5 5 0 0zm310-2c15-8-15 0 0 0zm-86-2c-10-7 2 7 0 0zm155 0c5-9-13 10 0 0zm205 0c4-23-15 2 0 0zm-505-2c-6-4 0 9 0 0zm435 3l-2-1 2 1zm91-1c-8-13-28 5 0 0zm-592-1c-6-28-21 2 0 0zm331-3c1-11-14 18 0 0zm13 4c-1-11-12-4 0 0zm11-2c-3-3-1 6 0 0zm31 1c-9-18-34 2 0 0zm454-2c-7-2 2 7 0 0zm-853 2c-2-4-2 3 0 0zm643-2l-2 2 2-2zm-78-1c-8-8 4 8 0 0zm89 0c-3-8-3 8 0 0zm-137 0c-2-5-2 5 0 0zm329 1c7-12-14-3 0 0zm-766-5c-19-7-9 12 0 0zm159 2c-8-17-19 10 0 0zm332-2c6-14-9 11 0 0zm-305 3c-2-4-1 3 0 0zm48 0c-2-11-6 2 0 0zm53-1c-3-8-2 7 0 0zm444 1c-6-5-6 4 0 0zm-10-3c-3-4-1 5 0 0zm-581-2c0-8-8 10 0 0zm560 2c-2-4-2 3 0 0zm-145-3c-8-24-24 4 0 0zm20 0c-3-6-5 5 0 0zm832 0c-2-6-5 7 0 0zm-841 0c-1-4-2 3 0 0zm175-1l-5 1 5-1zm607 1c-2-4-2 3 0 0zM483 27c-1-14-7 8 0 0zm220 1c-3-4-3 3 0 0zm120-1c-3-9-5 6 0 0zm-374-1c-12-18-9 4 0 0zm873 0c-4-6-4 6 0 0zm-864-2l-2 2 2-2zm151-1c-5-7-4 8 0 0zm670 0c19 1-6-18 0 0zm-713-1c1-9-10 4 0 0zm-7-2c1-9-6 7 0 0zm343 1h-2 2zm166-3c29-15-25-1 0 0zm22 2c-2-5-2 5 0 0zm30 0c-3-12-7 7 0 0zm736 0c-4-5-5 4 0 0zM552 18c0-10-7 9 0 0zm57 1l-1-2 1 2zm643-1c-2-8-2 7 0 0zm-372-1c-4-5-5 5 0 0zm222-1c-6-2 2 6 0 0zm11 0c-7-8-2 10 0 0zm-25-1c-5 2 3 3 0 0zm9 2c-3-8-7 6 0 0zm30 0c-2-4-2 3 0 0zm136-1c-3-5-1 5 0 0zm-5 0c-3-5-2 4 0 0zm-638-2c-1-4-2 4 0 0zm215-4c-7 4 2 8 0 0zm220 4c-2-4-2 3 0 0zm6-1h-2 2zm54 0c-2-4-2 3 0 0zm181 0c-1-4-2 3 0 0zm-31-3c-4-5-2 8 0 0zm704 1c-1-5-4 6 0 0zm70 1c-1-4-2 3 0 0zm-782-2c-4-8-1 6 0 0zm25-1c-6-7-4 7 0 0zm693-1c-4-5-4 6 0 0zm-963 0c-4-5-5 4 0 0zm276-1c0-8-5 6 0 0zm300-3c-4-10-3 6 0 0zM405 2c-2-5-2 6 0 0zm852 0c-2-4-2 3 0 0zm326-3c-5-2 0 6 0 0zm13 0c11-22-35 3 0 0zm-4-2c3-4 3 3 0 0zm-561 2c4-13-17 6 0 0zM642-1c2-13-7 2 0 0zm1327-1c0-7-3 5 0 0zM808-4c-4-3 0 8 0 0zm487 2c-1-6-3 3 0 0zm138-4c-2-5-3 4 0 0zM876-9c-5-2 2 6 0 0zm-69 1c-1-4-2 3 0 0zm222-2c-4-6-3 5 0 0zm1070 0c-4-5-3 4 0 0zM308 586h2-2zm61 1l3-1-3 1zm42 0c3-4 2 3 0 0zm42-1c-85-12 82-3 0 0zm34 1h4-4zm231 0h2-2zm1068 0c3-4 3 3 0 0zm67 0l2-1-2 1zm11 0c1-4 2 3 0 0zm23 0h2-2zm18 0c1-5 3 4 0 0zm4-1l2 1-2-1zm133 1c-1-8 19 8 0 0zm7 0h4-4zm10 0h3-3zm9 0h2-2zm3 0c3-4 2 3 0 0zm16-1h3-3zm16-1c1-6 7 9 0 0zm7 1l4 1-4-1zm8 1h2-2zm87-1c1-6 10 5 0 0zm18 0h3-3zm110 1c-12-6 10-1 0 0zm21 0h2-2zm6 0c0-6 8 5 0 0zm-2133-1h2-2zm189 0h2-2zm-143-2c-3-5 4 1 0 0zm2204-2c-6-9 10 0 0 0zm-428-2c-2-8 7 5 0 0zm-1770 0c-1-7 9 6 0 0zm1700-6c1-8 9 5 0 0zM84 573c4-5 4 4 0 0zm302-1c-8-7 15 6 0 0zm50-1c3-4 3 3 0 0zm-344-8c28-31 72-91 26-17-7 6-15 19-26 17zm606-10c2-6 3 4 0 0zm-379-4c1-13 9 4 0 0zm10 0c5-5 5 4 0 0zm-16-1c3-4 3 3 0 0zm1754-8c4-5 3 6 0 0zm-1531-1c-2-8 7 3 0 0zm5 1c3-4 3 3 0 0zm87-1c24-20 28-82 61-53-57 11 0 55-61 53zm32-23h-2 2zm-9 22c9-7-3 6 0 0zm-33-2c5-4 2 4 0 0zm1436 1c2-4 1 3 0 0zm-19-3c4-15 8 1 0 0zm42-2c2-6 3 4 0 0zm-1548-2c8-34 24 12 0 0zm205 1c-2-6 7 1 0 0zm-212-1c2-6 4 3 0 0zm-82-1c1-4 2 3 0 0zm300 0c2-4 1 3 0 0zm7 0c2-5 3 4 0 0zm-363-4c3-4 3 3 0 0zm1693-1c4-10 14 11 0 0zm-1437-3c1-7 7 1 0 0zm-482-4c-16-34 15-21 0 0zm2304-1c-4-19 7-12 0 0zm-1975 0c1-4 2 3 0 0zm59-1c8-21 15 3 0 0zm-97-1c-2-5 5 1 0 0zm-134-3c-2-13 12 3 0 0zm321 0c-1-5 5 3 0 0zm110 1c4-5 4 4 0 0zm-59-2c3-4 2 3 0 0zm-239-3c6-27 38 10 0 0zm28-1c0-10 11 8 0 0zm1621-4c-2-7 9 7 0 0zm-1371-2c5-14 7 11 0 0zm-86-3c4-4 2 5 0 0zm-198 0c3-4 3 3 0 0zm186-1l2 1-2-1zm18 0l1 1-1-1zm-501-1c-3-11 11 8 0 0zm290 0c4-5 4 4 0 0zm213-2c3-6 5 6 0 0zm-498-4c8-44 25 12 0 0zm504 1l1 1-1-1zm-8-7c2-5 4 4 0 0zm1288-1c-36-2 19-9 0 0zm-1199 0c1-5 3 4 0 0zm1527 0c2-5 2 3 0 0zm-1640-2h1-1zm78 0c4-5 3 4 0 0zm1311-2c2-8 1 7 0 0zm-1606 0c-2-5 7 4 0 0zm194 0c-2-5 14 7 0 0zm36 0l2 1-2-1zm11 1c3-4 3 3 0 0zm1374-1c2-4 1 3 0 0zm-1307-1c2-5 3 4 0 0zm1436-2c-7-26 21 12 0 0zm-1571 0c3-5 3 6 0 0zm1338 0c5-6 8 7 0 0zm540-1c-21-50 25 6 0 0zm-1790-2c3-8 5 5 0 0zm1535-3c5-6-1 6 0 0zm-1526-1c3-4 3 3 0 0zm1360-1c2-11 15 5 0 0zm-10-1c3-4 3 3 0 0zm21 0c-5-14 12-5 0 0zm-1463-2c4-6 4 6 0 0zm1490-1c-12-14 19 0 0 0zm79-3c2-12 3 10 0 0zm-1470-1c9-9 1 7 0 0zm1300-2c-2-5 7 4 0 0zm176 0c8-9 14 4 0 0zm-1771-1c-1-8 6 5 0 0zm1667 0c-4-7 6 1 0 0zm206-2c3-4 3 5 0 0zm-1859-2c-43-28-36-56 16-42 41-22-4 50-16 42zm-24-30h-2 2zm52-5l-1 1 1-1zm1791 35c5-10 16 5 0 0zm-38-2c38-22 15 6 0 0zm24 1c1-14 12 6 0 0zm-1985-2c-33-15-90-25-28-26 7 5 61 14 28 26zm13 1c2-5 3 4 0 0zm2026-2c-66-50 29-55 8-4-6-5-4 11-8 4zm-258 1c5-5 6 4 0 0zm460-2c-64-32-23-77 0 0zm-381-1c3-5 3 6 0 0zm-82-2c6-10 3 9 0 0zm36 0c6-9-3 9 0 0zm249 2c-8-12 18 3 0 0zm-292-2c-1-6 7 5 0 0zm15 0c65-55 99 8 0 0zm35-9c-3-4-1 5 0 0zm12-10c4-7-10 6 0 0zM718 441c7-15 17 8 0 0zm1711 0c13-8 11 1 0 0zm50-2c-1-9 3 5 0 0zm-2040 0c4-5 4 4 0 0zm1544 0c20-21-36-37 21-29 55-3 45-4 4 14 5 24-15 4-25 15zm16-7c-2-4-2 3 0 0zm4-12c-2-4-2 3 0 0zm205 19c5-5 5 4 0 0zm233 0c1-8 8 4 0 0zm-208-1c0-7 8 3 0 0zm-35-2c2-8 8 5 0 0zm-184-1c-5-20 21 1 0 0zm266 0c3-5 3 5 0 0zm-2300-2c1-7 3 7 0 0zm2492 0c-1-5 5 3 0 0zm-6-2c-2-6 6 2 0 0zm-2027-1c3-4 3 3 0 0zm1851-1c-6-5 11 1 0 0zm172-2c1-5 3 4 0 0zm-2253-2c3-4 3 3 0 0zm302-2c3-5 2 4 0 0zm1511-1c2-7 5 4 0 0zm-5-2c4-5 4 4 0 0zm-47-4c-46-9-74-55-12-12-8-4 32 17 12 12zm-36-19c-1-4-2 4 0 0zm105 21c1-5 3 4 0 0zm-89-3c-2-5 5 3 0 0zm-1417 0c3-9 10 7 0 0zm-131-4l2 1-2-1zm34 0c2-6 6 2 0 0zm1844-2l2 1-2-1zm-368-1c11-19 17-2 0 0zm-1687-2c2-8 4 7 0 0zm1681-2l1 1-1-1zm62 0c-1-7 5 6 0 0zm22 1c-28-18 71-33 5-1l-5 1zm284 0c1-4 2 3 0 0zm-2044-4c2-4 1 3 0 0zm305-1l2 1-2-1zm1733 0c3-4 3 3 0 0zm-2034-1c1-7 6 0 0 0zm2021 0c-20-15 19-7 0 0zm-2053-2c6-13 15 8 0 0zm1722-1c-1-7 6 2 0 0zM-6 393c1-12 23 15 0 0zm1891 0c3-5 3 6 0 0zm-1690-2c5-10 10 10 0 0zm1747 0c4-4 2 5 0 0zm297-1c-41-8-78-21-15-17 12-16 26 26 15 17zm-40-13c2-9-6 9 0 0zm13-1c-2-4-2 3 0 0zM192 387c-1-9 8 7 0 0zm2064 0c-10-15 7-5 0 0zm-2057-2c2-4 1 3 0 0zm402 0c-1-9 8 4 0 0zm1293 0c3-8 6 6 0 0zm13-1c8-6-2 5 0 0zm-1299-2c4-11 10 0 0 0zm1268-1c3-4 3 3 0 0zm-1666-5c7-11 17 5 0 0zm2035-1c3-8 3 4 0 0zm-1628-3c-4-8 10 8 0 0zm-112-3l3-3-3 3zm116 0c-6-7 6 0 0 0zm1246 0c3-4 3 3 0 0zm368-1c-4-10 7 6 0 0zm11 0c5-3 3 6 0 0zm-261-1c-3-37 16-11 0 0zm-1474-1l2 1-2-1zm1369 1c2-4 1 3 0 0zm-1366-3c3-6 3 5 0 0zm1357 0c3-9 9 11 0 0zm374 0c4-5 4 6 0 0zm199 0c5-11 11 10 0 0zm-1952-1h2-2zm42-2c-4-13 17 13 0 0zm-87 1c-5-11 9-1 0 0zm1805-2l2 1-2-1zm-1759-2l2 1-2-1zm93 1c1-4 2 3 0 0zm-66-3c-1-23 20-4 0 0zm1923 0c3-5 2 4 0 0zm-1943-2c-1-6 5 3 0 0zm1755 1c3-4 2 3 0 0zm-280-3c5-8-3-6 0 0zm-1577 0c-22-22 13-10 0 0zm1859-1l6-5-6 5zm175 0c6-11 10 6 0 0zm-2044-1c1-6 7 5 0 0zm1589-3c-6-9 15 4 0 0zm17-2c-11-8 16-5 0 0zm28-1c-21-47-21 22-52-23-17-27-62 1-27-27 7-5 68 11 39-27 16 66 86-24 89 40-21 4-51 15-49 37zm-26-11c-3-8-3 7 0 0zm-22-14c-6-11-3 6 0 0zm19-23c-4-5-3 4 0 0zm73 0c-2-8-8 4 0 0zM400 343c8-20 34 5 0 0zm142 0c-8-9 6 3 0 0zm1921 0c3-4 3 3 0 0zm-450-2l2 1-2-1zm248 1c3-4 3 3 0 0zm-1729-1c15-26 24 0 0 0zm1639-2c23-28 32-22 0 0zm-1810-1c-40-19 22-3 0 0zm1901-2c-26-34 19 4 0 0zm-1725-6c-3-7 7 1 0 0zm-193-1c2-4 1 3 0 0zm1532 0c1-5 3 4 0 0zm602-1c4-4 2 5 0 0zm-2140-1c-11-13 15 4 0 0zm235 0c1-4 2 3 0 0zm-246-2c4-4 2 5 0 0zm352-4c8-10-1 11 0 0zm18 3c-1-10 10 3 0 0zm-406-2c-38-2 16-17 0 0zm245-1c3-5 3 6 0 0zm-227 0c3-4 3 3 0 0zm234 0c-6-14 17-3 0 0zm24 0c5-8 4 4 0 0zm-264-2c3-6 5 4 0 0zm382-1c2-7 6 1 0 0zm1176-2c-9-14 13 5 0 0zm-1483-2c-7-11 19 9 0 0zm9 1c-5-10 6 2 0 0zm178 0c3-4 3 5 0 0zm1315 0c0-6 5 1 0 0zm-1621-2h2-2zm37 0c7-10 8 4 0 0zm8-6c-1-14 10 3 0 0zm18 2c-4-14 12 4 0 0zm-30-1c2-5 2 3 0 0zm413 0c3-5 4 4 0 0zm1186 0c3-4 3 3 0 0zm-1703-2c3-4 2 3 0 0zm-77-2c-69-30 51-12 13-5l-5 1-8 4zm560 1c2-6 4 3 0 0zm1449 0c2-6 4 3 0 0zm16-1c-37-8-66-3-59-16-90-53 45-6 50-16-33-34 67 35 9 32zm10-5c-4-5-5 5 0 0zm5-5c-3-5-5 4 0 0zm288 7c-1-9 8 2 0 0zM76 300c-1-7 6 2 0 0zm1800 0c0-6 8 2 0 0zm199 0c3-5 4 4 0 0zM83 299c3-4 3 3 0 0zm223 0c3-4 3 3 0 0zm6-2c-3-19 15 4 0 0zm1969 0c6-7 0 6 0 0zm-388-1c3-7 1 5 0 0zm194 0c-6-11 18 7 0 0zm-188-1c7-5 3 5 0 0zm-1594 0c-29-8 11-16 0 0zm1658-7c-3-8 11 2 0 0zm129-2l2 1-2-1zm-152 0c4-5 4 4 0 0zm132-1c3-7 4 5 0 0zm204 0c-5-26 7 5 0 0zm5 0c-1-9 9 7 0 0zm-313-3c1-5 5 2 0 0zm-1750-2c-3-7 12 6 0 0zm1697-2c3-7 4 6 0 0zm-1530-1c1-4 2 3 0 0zm-291-2c1-5 3 4 0 0zm1959-1l2 1-2-1zm-1850-3l2 1-2-1zm-4-2c-7-4 10 4 0 0zm293 0c2-4 1 3 0 0zm-71-4c-13-20 24 13 0 0zm1466 0c5-4 2 4 0 0zm-1697-1c-18-12 15 5 0 0zm1688 0c4-5 3 6 0 0zm-1443 0c0-6 4 2 0 0zm1442-8c2-4 3 4 0 0zm-1464-3c1-8 6 4 0 0zm136-3c5-6 6 3 0 0zm-152-4c4-48 66-6 0 0zm2066-4c9-14 7 13 0 0zm-229-1c-24-27 22 6 0 0zm-283 2c2-6 4 3 0 0zm-2-4c3-4 3 3 0 0zm6-3h2-2zm146-3c4-20 8 5 0 0zm-1557-1c0-6 5 1 0 0zm1329-3c5-11 3 12 0 0zm21 0c3-4 2 3 0 0zm6-2c-4-12 7 2 0 0zm-1358-3l4-2-4 2zm1566 0c3-4 2 3 0 0zm-1713-5c-41-41-46 14-54-43-20-44 35-87 62-27 83 20-67 5-1 46 0 7 2 20-7 24zm-43-13c-2-4-2 3 0 0zm37-6h-2 2zm-2-4c-2-4-2 3 0 0zm6-8c-2-4-2 3 0 0zm-27-3c-8-8-8 5 0 0zm44-28c-1-4-2 3 0 0zm-33-8c-3-4-3 5 0 0zm-20-2c-2-4-2 3 0 0zm57 73c3-8 9 4 0 0zm1699-3c0-7 13-4 0 0zm-203-4c3-5 3 4 0 0zm-1525-3c-1-6 5 3 0 0zm1576-7c-7-34 49-13 0 0zm-6-1c4-5 4 4 0 0zm-1732-5c2-6 3 4 0 0zm124-1c-4-8 11 2 0 0zm-135-4c-24-22-95-64-44-79 12-55 42-48 16-1-11 40-5 52 28 80zm-42-71c-2-4-2 3 0 0zm1726 72l3-2-3 2zm5-1c2-11 9-2 0 0zm-1620-4h1-1zm1628-2c11-20 0 11 0 0zm7 0c1-4 2 3 0 0zm4-1c3-5 3 5 0 0zm151 1c4-5 5 4 0 0zm-1842-1c11-16 32 1 0 0zm1696-3c-7-14 12 0 0 0zm179-3c3-5 2 4 0 0zm-1771-2c5-5 5 6 0 0zm-6 0c1-7 7 3 0 0zm91 0c3-4 2 3 0 0zm1714 0c3-4 3 3 0 0zm-1717-4c2-4 2 3 0 0zm-224-9c-2-9 5 7 0 0zm11 0c-39-13-3-23 0 0zm2119-3c1-7 8 6 0 0zm-1871-4c10-9-4 8 0 0zm16-1c3-6 4 6 0 0zm1692-7c4-6 4 6 0 0zm-1962 0c2-6 4 3 0 0zm2083-2c5-12 16-2 0 0zm-2090-2l2 1-2-1zm2249 0c2-9 17 7 0 0zm-2108-1c2-5 3 4 0 0zm-148-1c-4-5 5 1 0 0zm226-1c3-4 3 3 0 0zm-7-2c2-5 4 4 0 0zm-207-4c4-5 4 4 0 0zm-58-1c0-6 8 2 0 0zm2066-8c0-16 24-6 0 0zm5-12c0-11 6 0 0 0zm-2040-2c3-5 1 5 0 0zm1932 0c12-13 6 5 0 0zm-1992-1c17-37 10 11 0 0zm2108 0c2-5 4 4 0 0zm-1718-3c1-4 2 3 0 0zm1706-1c3-17 15 5 0 0zm240-5c2-5 4 4 0 0zm-414-5c4-6 3 8 0 0zM485 99c2-12 24-3 0 0zm1728 0c0-6 4 2 0 0zM463 96c-3-7 9 7 0 0zm8 1c3-6 9 5 0 0zm-16-1c-3-6 9 3 0 0zm-7-2c3-4 2 3 0 0zm1598-3c4-5 4 4 0 0zM485 88c-10-14 13 9 0 0zm-55-2c-32-21-113-94-40-54 3 2 12 40 40 54zm2048 0c1-5 3 6 0 0zm-429-2c-8-10 17-2 0 0zM496 83c2-5 4 4 0 0zm-315-9c0-11 5 6 0 0zm287-3c-8-17 11 8 0 0zm1580-5c-2-18 16 0 0 0zM171 65c-27-23 11-4 0 0zm290-2c2-6 6 7 0 0zm-284-2c4-5 5 4 0 0zm13-2c3-4 3 3 0 0zm189-3c2-16 4 9 0 0zm1844-2c3-5 2 4 0 0zM-19 52c1-5 2 6 0 0zm13 0c-3-5 4 1 0 0zm2231-5c4-8 1 7 0 0zM459 46c-2-14 10 3 0 0zm1779-2c5-9 2 8 0 0zM-15 43c9-16 13 3 0 0zm2494-1c-2-5 3 4 0 0zM441 38c-2-12 8 3 0 0zm1786 0c5-10 2 7 0 0zm21 0c-9-3 8-2 0 0zM-19 36h1-1zm148 1l1-2-1 2zm-142-2c-24-68 32-32 0 0zm276 1c1-4 2 3 0 0zm-11-1c-36-8-182-76-76-38 20 16 72 36 76 38zm1834-4c-1-9 8 2 0 0zm393-2c1-5 0 6 0 0zm-250-1c1-9 5 5 0 0zM255 27c-17-33 41-13 0 0zm1980 0c1-8 10 4 0 0zm244-3c-77-33 14-57 0 0zm-421-1c3-4 2 3 0 0zm64 0c2-4 1 3 0 0zm125 0c3-5 1 4 0 0zm-133-1c2-4 1 3 0 0zm93-1c-1-8 9 4 0 0zm17-1c3-5 3 6 0 0zm5 0c-49-80 170 6 54-13-39 0-30-3-54 13zm103 0c-10-15 13 2 0 0zM272 18c-2-13 12 12 0 0zm1929 2c2-5 3 4 0 0zm48-3c-1-12 8 9 0 0zM241 17c-2-7 7 2 0 0zm1870-1c-8-10 11 5 0 0zM22 13c3-5 4 4 0 0zm326-3c7-15 9 3 0 0zM14 8c-1-5 4 5 0 0zm2057-1c3-8 4 6 0 0zM267 6c3-5 4 4 0 0zm748-2c1-8 8 4 0 0zm1302-1c2-4 3 4 0 0zM822 1c-10-16 9 1 0 0zM595-1c1-4 2 3 0 0zM329-4c3-6 5 4 0 0zm1882-1c0-8 10 5 0 0zM393-5c-1-8 7 3 0 0zm445-3c4-6 4 6 0 0zm-259-3c-12-3 11 2 0 0zm-589-1l3 1-3-1zm7 0l2 1-2-1zm246 1h3-3zm19 0c7-6-1 4 0 0zm23 0c2-4 1 3 0 0zm8-1l2 1-2-1zm4 1c2-4 1 3 0 0zm55-1h4-4zm28 1c1-4 2 3 0 0zm14-1l2 1-2-1zm47 1c1-4 2 3 0 0zm10 0h2-2zm135 0h1-1zm45 0h1-1zm168 0c3-4 3 3 0 0zm20 0c2-4 1 3 0 0zm3 0h3-3zm7 0h2-2zm9 0h2-2zm151 0h5-5zm977 0h3-3zm7-1l1 1-1-1zm112 1c2-4 1 3 0 0zm23 0c2-4 2 3 0 0zm7-1l3 1-3-1zm177 0l2 1-2-1zm17 1c2-6 4 3 0 0zm135 0l4-1-4 1zM635-12h2-2z" fill="#afb0b0"/><path d="M300 587c2-5 2 3 0 0zm203 0l3-1-3 1zm12 0c-87-26 80-26 40-27 66 49-22 20-40 27zm109 0h2-2zm32 0c81-53 201-27 254-124-22-79-99 72-96 50 18-70-104 12-41-51 11-55-108-26-140-6-40 9-127-78-52-63 47 36 205 45 170-42-85 9 30-46-43-57-116-4 109-37 8-93-24 1-125 32-48-4 95-35-109-53-73 12-48 9 24-39-38-53-21-19 26 11 11-32-9-41-68-83-67-74 0-57-197-30-68-48 82-36 207 10 180 89 60-17 107 92 142-4 14-55-40-51-41-72-126-27 87-55 98 1-96 4 8 171 73 93-44-51-8-54 27-67-41-17 49 9 3-29-25-67 97 21 134-16 57-13 211-16 212 1-64 35 13 118 69 72 58-28-85-81 14-83 89 16 171-6 262 16 38-24 94-13 68 8 53 6 26-40 85-21 56 12 171-34 187 28-52-6-172 48-124 108 69 13 163 61 217-15-28 115 171 14 151 50-104 20-212-2-317 2-31 7 18 75-31 37-15-52-164-66-143 5 48-8 52-9 32 33 60 5-57 42 16 41 14 32 171-31 73 23-60 13-6 27 25 28-12 67 110 115 107 111-46-30-110 21-40 50-54-56-240-48-197 47 52 16-28 10 26 33-30 38-157 2-221 16H656zm1017-1h-3 3zm-609-4l-2 2 2-2zm528-8c92-59-121-108-49-23 10 15 30 30 49 23zm-4-24c-6-8 9 5 0 0zm20-5c2-5 2 3 0 0zm-75-12c1-4 2 4 0 0zm66-13c-9-11 7-3 0 0zm8-5c-1-8 6 4 0 0zm-6 60c-3-5-2 4 0 0zm-820-9c-4-9-4 9 0 0zm340 0c107-58-62-36 0 0zm9-18c4-14 12 11 0 0zm-21 0c2-5 3 4 0 0zm23-8l2 1-2-1zm9-5c3-5 3 4 0 0zm-352 30c-2-4-2 4 0 0zm13-1c-3-5-3 4 0 0zm358-4c1-10-7 9 0 0zm-412 0c-2-4-2 4 0 0zm19 0c-2-5-2 4 0 0zm853-3c-13-5 6 8 0 0zm-478 0c-3-5-2 6 0 0zm4-2c-5-5 1 6 0 0zm-305-3c-9-4-4 19 0 0zm7 2c-3-5-2 6 0 0zm324-2c3-10-9 6 0 0zm546-5c-4-7-10 13 0 0zm-865-1c-3-6-3 5 0 0zm16 1c-1-6-3 4 0 0zm-24-3c0-11-4 9 0 0zm249-1c-2-6-2 6 0 0zm-244-2c-3-5-4 5 0 0zm24-1c-3-7-3 6 0 0zm476 0c-2-6-3 6 0 0zm-492-2c3-14-9 9 0 0zm7 1c3-15-10 2 0 0zm19-2c-7-1 3 7 0 0zm823-1c-5 7-3 3 0 0zm-828 2c48-1 104-43 82-56 44-44-131 29-82 56zm19-11c3-5 5 5 0 0zm-9-5c-3-10 9 6 0 0zm10-5c4-11 9 5 0 0zm-25-3c1-6 4 4 0 0zm51-9c5-9 2 10 0 0zm20 1c4-7 4 6 0 0zm12-10c3-6 3 6 0 0zm0-15l1 1-1-1zm5-7c-5-9 12 4 0 0zm6-11c-1-8 5 6 0 0zm211 73c-2-5-2 4 0 0zm208-2c35-74-113-90-55-19 16 11 36 17 55 19zm-34-12c-2-15 8 1 0 0zm-11-6c5-16 10 3 0 0zm-9-8c3-5 3 4 0 0zm52-1c8-6 4 6 0 0zm-37-1c-4-9 8 4 0 0zm-7-2c0-8 8 9 0 0zm42 1l1-2-1 2zm-44-9c2-5 2 3 0 0zm18-4c3-7 3 6 0 0zm167 32c-1-11-5 15 0 0zm-663 2c-3-11-8 8 0 0zm81-5c-2-4-2 4 0 0zm26-3c-6-16-8 4 0 0zm161-1c-4-8-4 7 0 0zm16-1c28-17-22-13 0 0zm-3-7c2-5 2 3 0 0zm-168 1c-2-5-2 4 0 0zm160-1c-2-8-2 7 0 0zm-154-1c-6-3 4 4 0 0zm588-3c-20-18-4 12 0 0zm-267 0c-2-4-2 4 0 0zm274-5c-12-13-10 10 0 0zm33 0c-6-1 5 6 0 0zm-462-2c-2-8-2 7 0 0zm7 0c2-10-8 6 0 0zm147 0c-2-6-2 6 0 0zm7-1v2-2zm247-1v2-2zm-265 0c0-6-5 8 0 0zm-533-2c-2-4-2 4 0 0zm390-1c10-7-8-3 0 0zm147-1c-3-15-10 9 0 0zm6 0h-2 2zm411-7c-3-4-1 6 0 0zm-411 0c-3-5-5 8 0 0zm-11-3c-5-4-1 5 0 0zm-472 0c-3-5-3 4 0 0zm898-4c-2-6-3 6 0 0zm6-5h-2 2zm-740-5c1-10 1-8 0 0zm708 0c-2-5-2 4 0 0zm3-3c74-25-45-29 0 0zm-2-4c-1-9 5 3 0 0zm2-10c2-5 2 3 0 0zm6-6c0-8 6 8 0 0zm48 16l-2 2 2-2zm132-1c-5-7 0 6 0 0zm-1030-7c-3-6-3 5 0 0zm370-2c-3-43-76-5-2 1l2-1zm502-4c3-7-8 7 0 0zm147-4c-3-5-1 8 0 0zm-7 0h-2 2zm-1186-7c-22-21-4 16 0 0zm-60 4c-2-4-2 4 0 0zm1124 0c7-12-19 5 0 0zm11-3c-5-3-3 8 0 0zm-809-1c-13-21-8 10 0 0zm-247-3c-7-2 2 7 0 0zm6-2c-10-6 4 16 0 0zm1066 2c-15-21-20 6 0 0zm-876-5c3-19-11-1 0 0zm859-5c124-51-93-190-137-82 15 45 93 14 96 68 13 6 26 12 41 14zm-21-8c-2-5 5 4 0 0zm-14-3c2-5 1 3 0 0zm-5-3c-36-10 24-7 0 0zm-8-42c4-5 2 4 0 0zm-90-17c-5-5 9-1 0 0zm5 0c1-4 2 4 0 0zm30-17l2-1-2 1zm4-14c-2-11 7 10 0 0zM844 425c-2-5-2 4 0 0zm13-1c-2-8-7 11 0 0zm924-5c10-18-16 0 0 0zm20-2l-3-3 3 3zm-413-18c10-74-28-15 0 16v-16zm433 17c63-28-27-45 0 0zm18-19c-4-8 7 3 0 0zm-204 19c9-21-18 5 0 0zm157 0c-2-4-2 4 0 0zm-219-3c-3-20-17 11 0 0zm74-1c57-23-5-39-4-1l4 1zm149-2c-1-6-3 4 0 0zm-1053-3c-5-4-2 5 0 0zm777 0c-2-9-4 3 0 0zm-955-1c-1-8-5 4 0 0zm971 0h-2 2zm-711-3c65-29 52-91-14-48-45 15-13 54 21 31 5-3-35 29-7 17zm11-25c6-9 2 6 0 0zm9 0c-4-6 7 3 0 0zm-45-8c1-7 4 6 0 0zm35 1c-4-5 4 0 0 0zm18-3c0-6 5 2 0 0zm-50-3c1-6 4 4 0 0zm49-7c-6-5 10 3 0 0zm19-12c0-6 5 7 0 0zm977 58c-4-6-4 6 0 0zm-1087-3c-7-6 4 8 0 0zm1040 3c12-7-12-8 0 0zm-277-2h-2 2zm113-1c3-10-11 7 0 0zm-771-1h-1 1zm947-2c1-8-7 8 0 0zm-1004-2c-3-13-6 8 0 0zm12-3c4-16-19 14 0 0zm49 1c26-16-11-2 0 0zm-89 0c-4-5-4 4 0 0zm765-3c52-3 7-75-23-45 38-83-129 29-33 39 19-3 36 9 56 6zm23-17c4-5 3 6 0 0zm-100-3c-1-6 5 1 0 0zm98-2c4-6 4 6 0 0zm-97-12c-5-12 11 5 0 0zm50-2c-2-7 6 2 0 0zm-49-7c4-5 2 4 0 0zm79-5c1-6 4 4 0 0zm-54-6c2-5 2 3 0 0zm7-1c1-4 2 4 0 0zm-2-4c-4-8 10 7 0 0zm348 60c-3-5-3 4 0 0zm-1072-2c-2-6-2 6 0 0zm90-3c-4-14-7 13 0 0zm629-4c-6-2 2 6 0 0zm-718 1c-2-5-2 4 0 0zm855-1c-2-4-2 4 0 0zm-134-2c8-9-11 0 0 0zm138-1h-2 2zm194-1c-3-4-1 6 0 0zm-203-4c46-34-27-2 0 0zm14-2c-2-5-2 4 0 0zm-848-2c-7-2-6-1 0 0zm1007-2c-1-12-7 3 0 0zm-346-8h-1 1zm118 1c-2-5-2 4 0 0zm-803-4c-3-6-5 6 0 0zm291-2c18-11-15-2 0 0zm-262-2c40-31-39-4 0 0zm-3-2c3-5 3 4 0 0zm-5-5l2 1-2-1zm8-3l2 1-2-1zm660 10c-4-6-2 8 0 0zm114 2c-2-5-2 4 0 0zm-519-5c-3-11-2 13 0 0zm516 3c1-11-10 6 0 0zm-496-2c51-31-42-15 0 0zm501-1c-1-4-2 4 0 0zm-789-1c-3-8-3 7 0 0zm305 1c-3-5-3 4 0 0zm-12-4c-7-7 0 9 0 0zm18 2c-4-5-4 5 0 0zm-206-3c-1-8-3 3 0 0zm-9-4c6-12-10 12 0 0zm11-3c-7-4-6 7 0 0zm-41 1c-2-5-2 4 0 0zm757-1c-1-6-3 4 0 0zm-713-1h-2 2zm913-1c-2-8-2 7 0 0zm-1067-1c-3-5-3 6 0 0zm108 0c35-12-16-3 0 0zm-37 0c-2-4-2 4 0 0zm20 0c-3-5-2 4 0 0zm730-3c-4-6 0 7 0 0zm-776-1c8-13-25 12 0 0zm-14-1c-5-4-1 5 0 0zm796-2c-7-16-5 15 0 0zm18 2c-3-4-1 6 0 0zm-844-3c48-20-30-17 0 0zm10-9c1-6 4 4 0 0zm-7 11c-3-5-4 5 0 0zm355-3c-5-14-5 12 0 0zm685-3c-4-6-4 7 0 0zm-1018-1c-2-4-2 4 0 0zm-7-12c-9-16-9 14 0 0zm878 2c-2-9-4 3 0 0zm-895-3c-4-3-2 6 0 0zm102 0c0-6-7 6 0 0zm-58-1c-2-5-2 4 0 0zm189-1c-1-8-6 10 0 0zm791-3c-2-5-3 4 0 0zm-995-1c-2-5-2 4 0 0zm983-1c0-25-19 3 0 0zm45-2l-2 2 2-2zm-1032-3c-3-6-2 9 0 0zm1053 0c-9-11 2 9 0 0zm-613 0c-4-6 1 5 0 0zm-470 0c-2-5-2 4 0 0zm1098-3c-2-5-1 3 0 0zm-888-6c9-9-32 14 0 0zm849 1h-2 2zm8 0c-2-4-2 4 0 0zm-604-3c93-52-27-33 0 0zm609-1l-3 2 3-2zm4 0c-3-5-2 4 0 0zm-1108-4c-6-9-13 14 0 0zm61-26c6-12-10 3 0 0zm14-2c0-13 1-20 0 0zm-5-2c-3-5-3 4 0 0zm69-4c-4-8-7 7 0 0zm7 1c18 7-8-12 0 0zm715-3c-2-5-2 4 0 0zm-724-4c-5-3 2 6 0 0zm-5-2c-8-68-86-10 0 0zm-4-15c-2-6 6 2 0 0zm18 12c-3-5-2 6 0 0zm57-8c61-14 6-80-33-46 20-47-100 49-5 23 14 3 32 7 38 23zm2-7c2-11 6 7 0 0zm19-8c4-7 5 6 0 0zm-57-16c3-5 3 4 0 0zm40-23c4-5 3 6 0 0zm-25 50h-2 2zm44-2c-5-4-1 8 0 0zm-188 1c-2-5-2 4 0 0zm827-4c-9-5-4 17 0 0zm13-2c51-16-4-37 0 0zm147-4c45-36-24 4 0 0zm-16 2c-2-5-2 4 0 0zm-1083-2c-1-10-7 7 0 0zm485-4c68-48-34-98-63-37 29 11 20 32 63 37zm-13-15c-44 5 12-16 0 0zm17-4c5-9 12 11 0 0zm-9-4c-64-26 42-4 0 0zm12-8c-2-7 6 2 0 0zm5 0h3-3zm-34-10c3-5 3 4 0 0zm-7-15c-4-10 8 1 0 0zm523 54c-2-11-9 11 0 0zm-481-2c-6-15-4 17 0 0zm3 3c-5-6 4 8 0 0zm491-3c-3-8-6 7 0 0zm-972-1c-2-5-1 3 0 0zm968-4c45 1 1-21 0 0zm-467 1h-2 2zm404-2c44-15-14-2 0 0zm-396-2c30-21-24-5 0 0zm1-5c-1-7 6 3 0 0zm-342 4c-6-7-18 0 0 0zm328-2c-10-9-2 7 0 0zm538 2c-2-5-1 3 0 0zm-160-3l-2 2 2-2zm-3-2c-1-8-4 6 0 0zm-371-2c10-21-15 7 0 0zm423 1c-5-6-5 6 0 0zm41 1c-4-6-4 4 0 0zm24-3l-2 2 2-2zm-564 1c1-11-8 3 0 0zm781-1c-2-5-1 3 0 0zm-319-6c-1-18-11 16 0 0zm119 3c-2-5-2 4 0 0zm-494-1c-8-36-29-12 0 0zm-327-2c-2-9-4 3 0 0zm314-3c-3-4-1 6 0 0zm-428-2c-8-18-15 8 0 0zm938-3c0-10-7 4 0 0zm-500-5c-8 0 4 8 0 0zm-546 0c-9-9 2 9 0 0zm292-4c-33-21-18 14 0 0zm788 5c-4-6-4 6 0 0zm-642 0c-3-5-3 4 0 0zm596-2c-3-5-3 4 0 0zm13-1c7-14-12 5 0 0zm39 0l-1 1 1-1zm-821-1c4-12-13 3 0 0zm-286-3c-2-10-3 8 0 0zm277-1c-5-3-1 7 0 0zm-233 1c-2-4-2 4 0 0zm-62-3c-3-16-14 14 0 0zm1123 1c-2-5-2 4 0 0zm-257-9c10-28-12 5 0 0zm270 1l-2-1 2 1zm-813-2c2-7-7 7 0 0zm25 0h-3 3zm784-1l-2 2 2-2zm-797-3c-17-16-36 11 0 0zm7-1c-3-4-1 6 0 0zm969 2h-2 2zm-969-6c-3-6-4 7 0 0zm648-14c-4-7-6 11 0 0zm8 0c-2-4-2 4 0 0zm-901-4c-10-47-38 9 0 0zm456-1c56-30-53-48 21-49 37-81-116-68-169-57-9 62 92 106 133 57-11 22-34 70 15 49zm-27-11c1-7 6 3 0 0zm6-1c2-6 7 6 0 0zm14 0c2-5 2 3 0 0zm15-11c1-10 4 8 0 0zm-106-18l1 1-1-1zm55-4c2-5 2 3 0 0zm4-6c2-8 3 7 0 0zm-70 0c3-5 3 4 0 0zm69-8c1-8 4 5 0 0zm12-1c-34-23 19-8 0 0zm47-2c4-9 5 4 0 0zm-32-5c-24-12 19-5 0 0zm-31-12c2-5 1 3 0 0zm18-2c-21-14 14 1 0 0zm47-3c-1-14 7 3 0 0zm-58-3c2-6 7 9 0 0zm-9-3c4-6 4 6 0 0zm20-1c4-5 4 4 0 0zm-12-2c1-6 8 8 0 0zm-114-6c1-6 4 4 0 0zm76-1c-27-14 12 0 0 0zm-33-1c1-4 2 4 0 0zM640 125c-3-5-3 4 0 0zm465-1c-1-4-2 4 0 0zm466-2l-2 2 2-2zm-937 1c-2-5-2 4 0 0zm1144-1c-2-5-2 4 0 0zm-924-2c-1-7-7 10 0 0zm906 0c0-6-7 10 0 0zm27 1c12-4-8-1 0 0zm-212-1h-2 2zm451 0c-2-5-3 4 0 0zm-1384-1c-2-5-2 4 0 0zm107-2c-11-5 6 8 0 0zm999 0c-5-14-10 7 0 0zm-71-1c-2-5-1 3 0 0zm21-1c23-20-27 5 0 0zm-1-4c1-7 3 4 0 0zm338 4c-3-6-3 5 0 0zm-1394-2c-1-6-8 8 0 0zm1141 0c31-49-50 6 0 0zm-1216-2c-5 1 3 3 0 0zm465 2c1-12-8 2 0 0zm13-2c0-19-14 8 0 0zm702 1c8-8-8 2 0 0zm-109-3c34-30-23 3 0 0zm-584 0c-6-14-15 10 0 0zm-413-2c-1-14-9 9 0 0zm1074 0c73-3 13-42-15-10l15 10zm-8-6c3-6 3 6 0 0zm27-3c3-5 3 4 0 0zm-31-5c3-5 3 4 0 0zm27-3c-3-8 4 4 0 0zM570 107c-3-5-3 6 0 0zm41 1c1-9-6 3 0 0zm484 0c-3-5-2 4 0 0zm-535-4c-5-6-1 10 0 0zm74 3c-3-5-3 4 0 0zm249-2v2-2zm27-2c53-29-34-58 0 0zm-3-32c3-8 9 11 0 0zm761 35c12-7-14 4 0 0zm-187-3c7-16-15 15 0 0zm-852 2c-3-5-3 4 0 0zm1048-2c-4-6 0 7 0 0zm-656-1v2-2zm7 2c5-14-7-2 0 0zm623 0c-3-5-3 4 0 0zm-988-1c2-12-15 9 0 0zm371 0c1-10-7 5 0 0zm711-1c-3-6-6 10 0 0zm-567-2c6-51-55 12 0 0zm-19-5c1-6 4 4 0 0zm12-1c-33-27 26 2 0 0zm-8-14c2-5 1 3 0 0zm-84 21c-2-5-2 4 0 0zm414-1c2-13-9 6 0 0zm8-1c-2-5-3 4 0 0zm155 0c-3-5-4 5 0 0zm36-1c-4-7-4 6 0 0zm-658-2c-3-4-1 6 0 0zm637-3c62-41-44-11 0 0zm-9-5c2-5 2 4 0 0zm12-5c-1-6 4 1 0 0zM664 96c-9-6-7 5 0 0zm237 0c-2-5-3 4 0 0zm-20-1c-2-5-2 4 0 0zm596-8c-8-22-9 22 0 0zm7 4c-6-5 6 10 0 0zm-904 0c-5-7-4 7 0 0zm571-1c4-17-12 1 0 0zm353-5c24-31 27-48-10-12v6l10 6zm-729 1c1-10-6 5 0 0zm500-2c-5-3 2 6 0 0zm258 2c-2-4-2 4 0 0zm7-2c0-12-7 12 0 0zm-970-1c-3-14-9 11 0 0zm731 0c-3-6-3 5 0 0zm437 1c3-14-10 3 0 0zm-981-3c-5 1 3 3 0 0zm760 1c-3-4-3 5 0 0zm291-1c-5 0 4 5 0 0zm-318-2c-5-4-1 8 0 0zm38-4c-8-19-8 19 0 0zm-968 5c-2-5-2 4 0 0zm347 0c0-7-5 4 0 0zm232-2c-2-7-3 11 0 0zm338 2c-2-5-2 4 0 0zm84-1c17-20-19-17 0 0zm-661-2c-2-20-6 10 0 0zm519 2c-3-5-3 4 0 0zm128-2c11-16-12 2 0 0zm-943-1c-3-6-2 7 0 0zm289-2c9-27-16 3 0 0zm-120 0c-6-17-11 6 0 0zm477 0c-6-10-5 8 0 0zm264 1c-3-12-6 6 0 0zm5 1c0-8-8 6 0 0zm-755-7c-2-19-11 13 0 0zm398 3c1-10-6 5 0 0zm254 0c-4-9-11 3 0 0zm69-2c-5-6-1 9 0 0zm325 1c-7-5 3 7 0 0zm-873 1c-3-5-3 4 0 0zm11 0c-3-5-3 4 0 0zm-6-2c-4-4-2 6 0 0zm-10-1c33-7-7-19 0 0zm600-3l-2 4 2-4zm151 4c-2-4-2 4 0 0zM576 67c33-68-99-62-31-12 10 3 25 0 31 12zm-7-22c2-5 2 3 0 0zm-29-4c-4-4 5 0 0 0zm33-2c2-5 2 3 0 0zm296 29c3-9-8 1 0 0zm-279-1c8-29-17-10 0 0zm834 0c5-6-10 4 0 0zm128-2c-7-11-5 8 0 0zm133 0c2-9-6 3 0 0zM569 64c-6-5-5 7 0 0zm847 1h-2 2zm-489-3c-22-28-10 7 0 0zm-327 1h-2 2zm802-2c-4-4-2 6 0 0zm30 1c21-53-49-10 0 0zm-10-5c-1-14 11 4 0 0zm288 5c-7-10-7 7 0 0zm-939 0c0-19-21-1 0 0zm928-1c-2-5-2 4 0 0zM539 59c-3-5-3 4 0 0zm54-2c6-6-10 5 0 0zm860 0c17-27-17-19 0 0zm-520-2c-4-7-2 7 0 0zm429-1c16-38-17-4 0 0zm202-1c-3-4-2 8 0 0zm-401-3v3-3zm323-1c48-33-22 0 0 0zm-10-2c10-16-12 10 0 0zm-888 0c16-13-24 1 0 0zm824 1c-3-6-2 7 0 0zm150-1c-4-8-3 14 0 0zm279 0c-3-5-3 4 0 0zm-430-3c-2-10-8 1 0 0zm434 0c-2-5-3 4 0 0zm6-4c-3-4-1 6 0 0zm-16 0c41-12 67-34 15-41-13-6-28 39-15 41zm10-14c-6-9 14 5 0 0zm2-13c5-11 5 9 0 0zm3-9c2-4 3 4 0 0zm-199 36h-4 4zm209-1c1-12-19 17 0 0zm-430-4c25-12-13-13 0 0zm158 1c52-1-30-12 0 0zm90-2c7-21-18-2 0 0zM585 33c0-7-5 5 0 0zm868 1c-2-8-4 4 0 0zm207-2c-2-11-3 10 0 0zm203 2c-1-4-2 4 0 0zm8-1c-3-6-4 6 0 0zm-260-1c-1-15-13 10 0 0zm84 1c3-19-20 0 0 0zm-959-5c-4-8-4 7 0 0zm772-3c36-18-35 6 0 0zm71 2c-4-9-5 6 0 0zm20-5c4-8-13 2 0 0zm-172-3l-1 1 1-1zm156-1c8-17-12 8 0 0zm7 1c-2-8-4 7 0 0zm91-2c-1-7-5 15 0 0zm-110 1c-4-7 1 6 0 0zm145-1c26 0-27-4 0 0zm-294-2c-3-10-1 13 0 0zm279 2c3-9-8 8 0 0zm29 1c-4-6-4 4 0 0zm-713-2c-2-6-2 6 0 0zm215 0c9-12-13 7 0 0zm347-1c-5-8-12 5 0 0zM528 15c-2-5-2 4 0 0zm1169-1c-4-11-4 5 0 0zM521 12c-3-6-2 9 0 0zm920 0c-6-3 2 6 0 0zm-134 1c-2-5-2 4 0 0zm142-2l-2 2 2-2zm-918 1c-2-5-3 4 0 0zm1299-3c-6-5-1 8 0 0zm-866 1h-2 2zm982-1c-2-5-2 4 0 0zm-507-1c-1-4-2 4 0 0zm56 0c-2-5-2 4 0 0zm-43-1c8-22-16-4 0 0zm-9-3c-3-6-3 6 0 0zM473 3c-3-4-1 6 0 0zm1008 0c1-12-10 6 0 0zm93-1c-1-13-7 7 0 0zM795 2c-1-6-3 4 0 0zm580-1c6-15-7-5 0 0zm19-2c-4-4 1 7 0 0zM786-7c0-6-7 6 0 0zm882-1c6-8-11 3 0 0zm-279-2c-2-5-2 5 0 0zM871 587h2-2zm888 0l3-1-3 1zm10-1c7-7 3 6 0 0zm9 1c1-4 2 4 0 0zm3-1l1 1-1-1zm12 0c9 1 6 1 0 0zm10 1c10-1 7 0 0 0zm9-1c1-5 2 6 0 0zm3 1c2-5 1 3 0 0zm20 0h1-1zm87-1c-20-8 1-10 0 0zm8 0l2 1-2-1zm6 1c5-6 4 5 0 0zm35 0h2-2zm10-1h2-2zm20-1c0-12 7 12 0 0zm151 2h2-2zm34 0c2-5 1 3 0 0zm148 0h1-1zm26 0h1-1zm-162-1h2-2zm-1900-3c13-39 144-60 48-24-17 7-29 24-48 24zm81-46c-4-8-4 8 0 0zm1626 45c4-9 8 6 0 0zm-100-1c-40-12-152-11-48-21 9 4 63 3 48 21zm1-6l-3-2 3 2zm213 2c5-6 5 8 0 0zm-194 1c3-5 3 4 0 0zm78 0c-1-9 7 1 0 0zm13-1l2-5-2 5zm-1683-1l2 1-2-1zm1588-1l2 1-2-1zm172-1c9-21 17 11 0 0zm-1444-1c-7-5-4-3 0 0zm1197 2c2-8 4 4 0 0zm266-1c2-5 1 3 0 0zm-1772-1c-2-6 7 2 0 0zm315-1c12-24 28 14 0 0zm1431-1c-28-6-84-19-20-18 2 0 45 13 20 18zm-53-14c-3-6-4 8 0 0zm4-2c-8-7-1 7 0 0zm-252 15c4-5 4 4 0 0zm236-1c3-4 3 5 0 0zm-1515 0c2-5 2 4 0 0zm1275 0c2-5 2 3 0 0zm-1431-3c7-12 4 8 0 0zm1396-1c3-5 3 4 0 0zm275-1c1-6 4 4 0 0zm-260-4c2-5 6 5 0 0zm-1405-3c3-5 3 4 0 0zm1658-2c7-5 6 6 0 0zm10-4c2-7 5 5 0 0zm43 0c-1-7 6 6 0 0zm-1276-2c-2-8 12 9 0 0zm-351-5c10 1 6 0 0 0zm362-1c-3-15 12 2 0 0zm-388-2c-31-9 40 2 0 0zm17 1c3-5 3 4 0 0zm-312-5c7-11 7-10 0 0zm1823-1c5-6 4 7 0 0zm-1134 0l2-1-2 1zm1143-1c1-8 8 5 0 0zm-1311-1c3-5 3 4 0 0zm1293-3c2-5 2 3 0 0zm0-3c4-9 5 4 0 0zm-4-5c-20-23-9-34 0 0zm9-1c2-5 1 3 0 0zm-1162-3c-13-65 41-4 0 0zm24-1c3-7 4 6 0 0zm1138 1c1-12 9 4 0 0zm-1108-2c7-19 25 0 0 0zm1102-1c-15-26 20 8 0 0zm-64-2c3-14 10 3 0 0zm-1065-2c-2-7 6 2 0 0zm1143-1c2-5 1 3 0 0zm-7-3c4-12 4 10 0 0zm51 2c-118-13 74-17 0 0zm-85-3c4-5 3 6 0 0zm173 1c-37-34 5-43 0 0zm-151-2c-3-10 13 5 0 0zm-27-2c6-6 6 5 0 0zm-1447-3c3-5 3 4 0 0zm1470-2c3-6 3 6 0 0zm-25-1c8-23 4 9 0 0zm113-3c-3-6 6 2 0 0zm-1338-5c7-13 1 8 0 0zm1210-3c-4-8 9 7 0 0zm45 1c5-6 3 5 0 0zm-39-2c3-4 3 5 0 0zm-1210-2c-5-4 5-2 0 0zm1402-3l2 1-2-1zm-1205 0c3-5 2 4 0 0zm1170 0c7-6 5 5 0 0zm104-7c-9-16 11 4 0 0zm-395-10c4-6 4 6 0 0zm131-5c3-5 3 4 0 0zm-1032-3c4-4 2 5 0 0zm-632-9c-46-12-29-30 0 0zm1664-3c4-7 6 6 0 0zm-1486-2c-3-15 9 9 0 0zm-10-7c-47-23 24-7 0 0zm-2-7c-2-5-2 4 0 0zm1872 7c-5-16 13 10 0 0zm-209-2c1-8 7 4 0 0zm-9-5c1-14 13 7 0 0zm405-1c-19-5 7-7 0 0zm-2032-1c-50-9 33-5 0 0zm1842-1c-21-31 27 10 0 0zm179-3c-28-21 19-3 0 0zm-2043-3c9 1 6 0 0 0zm1663 0c3-6 5 6 0 0zm-1668-3c2-5 1 3 0 0zm1609-1c11 0 10 0 0 0zm-1347-2c4-21 5 8 0 0zm1602-1h1-1zm-1-5c-1-7 4 6 0 0zm-258-9c7-20 41-7 0 0zm-1551-4c2-26 31 9 0 0zm184-6c0-8 7 2 0 0zm1301 1c1-6 6 2 0 0zm-1415-1c-42-15 62-5 0 0zm255-2l2 1-2-1zm1449-8c1-14 33 17 0 0zM757 356c3-4 3 5 0 0zm1099-1c-13-6 11-3 0 0zm-1168-5c3-5 3 4 0 0zm15-2c-2-16 13 2 0 0zm23-19c-1-9 8 8 0 0zm1068 1c4-6 3 4 0 0zm-1193-3c-67-51 43-5 1 0h-1zm1585-3c5-7-1 6 0 0zm-166 0c-50-30-64-16 0-25 60-13 48 9 0 25zm3-16c-2-5-2 4 0 0zm-1490-5c-3-9 5 1 0 0zm115 0c-1-9 9 5 0 0zm-551-3c7-30 35 11 0 0zm437-4c-114 6 18-53 58-49 54 47-105-4-31 44l-27 5zm-15-4c-2-5-1 3 0 0zm-16-11c-3-5-2 4 0 0zm42-20c-6-2 0 5 0 0zm46-9c-3-5-3 4 0 0zm1538 45c-50-14 43-10 0 0zm-1419-1c3-5 3 4 0 0zm1320-2c3-5 2 4 0 0zm-1442-3c-52-26 44 1 0 0zm-499-2c5-6 1 5 0 0zm559-1c7-14 30 23 0 0zm-14 0c2-8 4 4 0 0zm1414 0c3-10 6 5 0 0zm-1422-1c-2-6 7 2 0 0zm-5-2c3-6 3 6 0 0zm63-3h1-1zm1069-3c-1-9 9 7 0 0zm116-1c-2-11 8 6 0 0zm-119-6c1-4 2 4 0 0zm-15-4c4-12 12 7 0 0zm-1022-2l1 1-1-1zm1051-5c0-6 4 7 0 0zm-1028-7c-1-9 8 6 0 0zm1107-1l1-2-1 2zm-1241-4h3-3zm-198-7c3-25 33-4 0 0zm1832-2c3-7 3 7 0 0zm-1637 0h1-1zm1157 0c-2-7 9 4 0 0zm71-2c6-7 4-5 0 0zm513-1c4-9 11 10 0 0zm-1746-2c-3-11 6 7 0 0zm1170 0c3-5 3 5 0 0zm80 0c-3-10 7 4 0 0zm-111-1h2-2zm600 0c2-5 2 3 0 0zm-556-1c13-18 30 2 0 0zm571-2c28-41 50-41 0 0zm-503-2c0-13 8 7 0 0zm-41-2c-14-11 15 1 0 0zm-1210-1c3-5 3 4 0 0zm8-1c4-7 6 6 0 0zm1710-3c-25-12 17 15 1-2l-1 2zm-1731-1c-7-12 10 9 0 0zm1228 1c5-8 23-6 0 0zm46-1c0-6 7 6 0 0zm-1122-1c-21-18 16-5 0 0zm1070-2c0-7 6 7 0 0zm20-2c2-8 4 8 0 0zm-1430-2c3-6 3 6 0 0zm290 1c1-4 2 4 0 0zm1149-1c-2-12 6 5 0 0zm46-1c0-8 7 7 0 0zm-56-1c1-9 7 2 0 0zm-106-4c1-7 3 4 0 0zm-992-4c4-7 3 7 0 0zm-110-4c2-9 8 13 0 0zm1675 1c-2-7 7 7 0 0zm-588-1l2 1-2-1zm133 0c-3-10 8 4 0 0zm-1440-3c-6-14 10 9 0 0zm1479 0c5-6 5 5 0 0zm8 0c0-6 5 2 0 0zm-1294-3c0-15 7 11 0 0zm1695 0c-2-7 9 7 0 0zm-1709-2c-4-10 8 6 0 0zm11-2h1-1zm1686-9c-66-48 36 23 0 0zm-572 4l2 1-2-1zm-1099-2l2-1-2 1zm1788-1c3-5 3 4 0 0zm-516-1c2-5 1 3 0 0zm-1506-2c-61-13 40-47 0 0zm1381 1c-4-6 7 2 0 0zm58-2c2-6 3 5 0 0zm-1107-1c-10-9 12 2 0 0zm1009-2c3-5 3 4 0 0zm-1134-1c1-5 6 3 0 0zm1141-2c5-8 5 7 0 0zm681-1c8-25 4 8 0 0zm-1758 0c3-5 3 4 0 0zm1224-4c-6-9 13 7 0 0zm38 0c3-6 3 6 0 0zm-1555 0c-1-10 10 3 0 0zm1527-1c0-5 0 4 0 0zm-1468-1c2-5 2 3 0 0zm-13-3c-27-13 20-3 0 0zm33-4c-8-7 23 10 0 0zm1806 0c3-5 3 4 0 0zm177-2c19-34 30-15 0 0zm-477-7c3-6 3 6 0 0zm-1559-1c2-5 2 3 0 0zm1863 0h2-2zm-1855-7c-40-5 9-21 0 0zm-208-2c-2-22 21-19 0 0zm182 0c3-6 7 3 0 0zm1860-1c3-6 3 6 0 0zm-1662-2c2-12 6 8 0 0zm-6 0c2-6 3 5 0 0zm-397-3c1-22 16 4 0 0zm405-6c-5-16 10 3 0 0zm-7-1c-21-12 38-16 0 0zm-194-3c4-5 4 4 0 0zm481-9c3-5 2 4 0 0zm-31-3c7-14 8 5 0 0zm69 0c5-6 4 7 0 0zm0-4c3-6 4 5 0 0zm-322-4c4-6 4 6 0 0zm191-10c0-10 8 8 0 0zm15 0c-5-5 6 1 0 0zm-82-4c4-4 1 6 0 0zm8 0c9-7 20-16 0 0zm-50-2c3-5 3 4 0 0zm37-3c-3-10 13 7 0 0zm-14-3c-2-6 6 1 0 0zm-457-2c-5-11 10 8 0 0zm661 0l2 1-2-1zm-330-1c3-5 3 4 0 0zm6-1c3-5 3 4 0 0zm1492-1c1-13 7 6 0 0zM536 75c4-5 4 4 0 0zm86-2h2-2zm1387-5c-3-7 6 3 0 0zm16 0c-31 1 10-9 0 0zM619 68c-2-20 22-1 0 0zm628-2c-4-31 32 6 0 0zm9-5c-4-6-4 4 0 0zm735 6c4-5 4 4 0 0zM840 64c-3-10 6 6 0 0zm-437 1c-4-6 7 2 0 0zm452-4c2-5 2 3 0 0zm1166 0c0-5 5 3 0 0zM747 60c-2-5 6 2 0 0zm492 0c-9-14 13 2 0 0zm-842-2c-4-5 5 0 0 0zm422-1c-30-33-13 18 0 0zm-76-1c1-4 2 4 0 0zm3-1c-2-9 9 3 0 0zm514-1c4-9 5 7 0 0zm-869-2c-43-36-18-35 0 0zm851 1c3-6 5 5 0 0zm-406-2c17-21 30 21 0 0zm419 0c2-7 5 5 0 0zm704 1c-7-16 15 0 0 0zM720 48c4-31 9 10 0 0zm76 2c3-9 5 6 0 0zm470 0c3-5 3 4 0 0zm-441-2c3-6 3 6 0 0zm42 0c4-6 4 6 0 0zm405 0l1 1-1-1zm-491-2c3-10 2 8 0 0zm35-1c4-6 3 8 0 0zm86 1c1-6 4 4 0 0zm12 1c1-4 2 4 0 0zm360-3c2-5 2 3 0 0zm67-3c1-4 2 4 0 0zm608 0c3-5 3 4 0 0zm87-5c-1-11 6 8 0 0zM749 37c3-5 3 4 0 0zm142-1c-2-6 7 2 0 0zm-98-5c1-7 4 6 0 0zm89 1c3-5 3 4 0 0zm1010-1c3-4 3 6 0 0zM491 28l5-1-5 1zm343 0c-9-10 8-5 0 0zm14-1c-42-13 45-4 0 0zm16-2c-15-13 15 3 0 0zm1035-1c3-6 3 6 0 0zM808 23c4-8 6 6 0 0zm519-2c-3-7 6 3 0 0zM-16 18c-16-34 28-19 0 0zm2493-1c-52-16 3-41 0 0zm-436 1c9-10 10-12 0 0zM867 16c0-9 10 3 0 0zm-877-1c3-5 2 4 0 0zm604-2c-1-7 5 6 0 0zm283-2c-3-23 28-3 0 0zm1217 1c-1-15 9 1 0 0zM187 9c3-5 4 5 0 0zm481 0c3-6 6 4 0 0zm1291-1c26-23 6 8 0 0zm343 1c-92-1-29-46 4-4l-4 4zm-52-12c-1-6-5 5 0 0zM1272 8c6-5 5-5 0 0zM418 6c2-5 5 6 0 0zm438 0c3-6 3 6 0 0zm1187-1c-72-29 99-4 11-4-3 0-7 8-11 4zm-7-16h-2 2zm56 17c-11-25 10 6 0 0zm-421-1c3-9 9 5 0 0zM177 3c-17-9 14 4 0 0zm724 0c-10-8 13 5 0 0zM356-2c-11-11 13 4 0 0zm1625 1c2-5 2 3 0 0zM166-3c-44-12 15-3 0 0zm204 0c-17-5 12-7 0 0zm6 1c3-5 3 4 0 0zm1180 0h3-3zm60-3c1-6 4 4 0 0zm-64-2c-6-8 5 3 0 0zm439 1c3-7 4 5 0 0zm105 0c3-5 3 4 0 0zm-701-2c3-5 2 4 0 0zm162 0c-6-12 19 6 0 0zm19-1c2-8 3 6 0 0zm422 1c1-8 8 1 0 0zM145-12l1 1-1-1zm98 0l2 1-2-1zm115 1h1-1zm193 0h3-3zm14-1h2-2zm4 1l3-1-3 1zm77 0h4-4zm8-1h2-2zm107 1c2-5 2 3 0 0zm47 0c1-4 2 4 0 0zm46-1h2-2zm22 1c4-5 4 4 0 0zm6 0c8-1 7-1 0 0zm10 0h2-2zm70-1h3-3zm9 1c2-5 1 3 0 0zm72-1l2 1-2-1zm4 0h2-2zm315 1h3-3zm38 0h3-3zm15 0h3-3zm6 0h1-1zm9 0c9-1 5-1 0 0zm26-1h2-2zm80 0h2-2zm14 1c2-5 1 3 0 0zm16-1l2 1-2-1zm14 1l3-1-3 1zm33 0c3-5 3 4 0 0zm78-1h2-2zm56 0l2 1-2-1zm25 1l3-1-3 1zm231 0l3-1-3 1zm72-1l2 1-2-1zM745-12h2-2zm175 0h2-2z" fill="#8f9090"/><path d="M551 586c4-3 1 3 0 0zm13 1c3-4 2 3 0 0zm7 0c5-2 1 2 0 0zm11-1c-28-16-39-2-61-5-19-24 46-27 70 6l-9-1zm76 1c3-4 2 3 0 0zm4 0c2-4 1 3 0 0zm3-1c31-13 58-38 93-21 53 24 50-19 78-33 64-42-19 11-18 40 30-8 56-29 81-26 22-14 49-14 68-20 29-3 17-11 26-37-29 1 17-24-14-35-27-11-54 33-83 43-49 28 5-16 21-30 17-27 57-32 2-42-17-14-38-28-23-40 7 20 9-26-2-4-49-9 21-40 12-30 20-7-23-25 2-20 34-10-34-15-24-9-10 6-29-6-44 11-60-8-5-12-69-43-16-5-32 15-40-5-22 14 8-10 4-13-5-27 37-17 54-4 19 11 13-12-21-40-14 23-12-17-34-29-60-13 36-9-13-30-35-13-93 1-108-18-19-15-18 16-32 8-18-26 23-33-11-57-35-39 58 56 14-14 8 29 58 18 26 35 10 15 19 32 42 28 10 3 4-36 12-12-4 22 19 25 41 16 17-11 51-8 62 5-12-27-79-35-66-28-29-4 85-1 63 2-10-32 29-34 17-36 14 12 20 54 42 50 45-11 34 19 97 9 47 21 31-4-8-19-15-12-31 3-52-3-11-7-49 12-23-6 39-10 146-15 122-13 12-18-42-21-4-42-11-35-33-23-15-43-7-21-33-27-11-33 2-33 47 8 41 38 14 18 15 32 27 49 28-2 10 33 23 32 31-2 50-7 61 12 5-50-4-11 22 1 47 1-30 13-50 22-26 6 10 57 0 44 15-3 25 13 45 20 34 0 43 13 71 1 19-20 10-7 4-41-25-27-12-25-31-37-44-5 28-9 10-34 16 31 53-18 31-39-20 1 0-31-34-45-19-22-95-11-79-32 11-4 18-13 21-1 25 3 47-4 71 5-9-15 113-1 67 0 14 10-29 33-3 53-17 29 18 48 12 35 5 33 26 26 50 12 21 3 44-3 39-6-21-17 52-14 40-11 0 7 33 27 30 15 22 8 41-13 59-28 18-7 45-10 37-3-42 15-51 78 0 48 26-16 24 15 19 6 27-9 46-29 68-49-1-18-32-34-49-28 11-18-28-30-16-40-4-14 78 81 39 24 8 6 27 22 51 24 26-2-2-44 24-27 18-16 5-19-2-16 17-10 38-24 24 10 4 14 13 41-3 40 33-23 91-13 26-1 22 6-35 24-17 32-21 6-58 48-56 26-33-2-75 39-20 26 27-17 33-15 64-25 20-6-37 26 17 3-37 33 22 7 57-2 2 28 40 4 69 14 45-9-86 23-52 11 13 2 10 3 39 1 26 12 62-18 92-1-17 8 53 30 90 21 33 11 98-69 73-8 6 11-81 21-71 16-43-10-151-17-130-9-24 9-63 1-87-6-15-19-98 25-61 12-10-11-48 11-77 22-27 17-68 52-20 46-24 1-36 29-30 15-25 24 10 1 26 10 20 19 41-18 9-4 25-1 18-53 19-26 13 12 16-13 29-6 10-18 32-63 41-31 9 25-31 16-35 39 22-15 41 3 39-10 20 9 55 5 33 22-24 16 33 3-15 26 30 2 29 18 42 36 27 19 43 13 34 28 8 23 34 27 52 16 8-10 35 34 3 25-21 11-39 31-24 4 14-12-28-17-42-38-28-21-63-49-98-36-24-6-44 21-66 29-17 17 11 41-17 28 15-43 8-31-17-42-9 0-41 50-24 3 0-28-40-16-61-4-4-7-24 36-28 30-6 13-30 28-12 42 14 8 40-4 54 8 13 2 17 21 52 22 26 30 50-13 15-16-35 0-80-10-11-6 36 17 24-51 34-26 13 5 21 9 42 13 0 8 14 15-19 15-23 3-9 26 7 29 14 0 50-18 50-19 17-26 22 22 27 13 29 18-40 19-31 49-10 44 44-21 26 17-2 19 13 29 3 29-19 25 32 58 29 53 57 28 2 21-27 5-29-14-31-12-48-23-10-1-62-97-21-40-1-28-50-13-42-16-14-14-42-15-53 0 1 23-24 42-12 60 7-9-9 40-3 34-21-2-19-5-32-3-16 4-41 2-50 2-58 7-90-10-128 0-39 0-99 3-142 1 16-20 24-23 27-45 6-9-16-20-8-30-15 37-10-3-24-2 20-15-17-50-32-6-16 19-50 24-42 48 6 5 70 23 58 22 9 17 31-26 38-8-20 8-30 30-60 20-22 1 2-15-30-4-23-8-2-24-28-18-12 37-52 19-85 22-38 3-58-2-85 0-8-14-37 3-57-2-12 6-56 2-81 2-3-14-43-8-70-2 2 5-7 1-18 2zm99-1c10-6-12 4 0 0zm539 1c-1-4-4 3 0 0zm160-2c1-7-9 7 0 0zm13 1c9-8-14 1 0 0zm-177-2c-6 2 2 3 0 0zm-406-1c-5-1-1 5 0 0zm131 0c41-17 4-21 0 0zm8 0c-1-4-2 3 0 0zm-159-5c-3-4-5 3 0 0zm127-7c-2-5-2 5 0 0zm-187 0c-1-4-2 3 0 0zm197 0c18-22-1-33-26-11 12 9 28 1 26 11zm6-2c1-5-9 3 0 0zm-298-2c-2-4-2 3 0 0zm305-3c5-5-9 2 0 0zm59-4c-9-3 5 4 0 0zm-38 0c-1-4-2 3 0 0zm475-2c-3-3-2 6 0 0zm-491 0c-7-10-7 7 0 0zm485-1c-4-4-4 3 0 0zm-483-1c-2-5-3 3 0 0zm7-3c10-6-12 4 0 0zm342-6c44-10 17-59-12-80-32-39-65-2-52 39 14 54-15-23-8-32-9-6-34-1-31 23 9 21 20 27 46 42-3-31 37 23 54 7l3 4v-3zm-10-5c0-3 5 4 0 0zm8-1c0-11 9 11 0 0zm-10-3c2-4 3 3 0 0zm34-17c2-4 5 3 0 0zm-73-66c2-5 1 5 0 0zm-299 92c-1-11-16 1 0 0zm306-7c-10-19-9 8 0 0zm306-3c-4-4-1 3 0 0zm-351-9c-4-2-1 2 0 0zm-296-5c-2-4-2 3 0 0zm74-3c1-7-8 2 0 0zm105-14c-10 4 3 14 0 0zm297 5c-5-4-3 3 0 0zm-9-5c0-10-7 5 0 0zm-11-1c-5-3-1 3 0 0zm18-1c-2-4-2 3 0 0zm179-4c-2-3-3 2 0 0zm-175-1c-4-4-4 3 0 0zm-305-8c-3-22-5 11 0 0zm360 1c-4-4-4 3 0 0zm-460-4c20-23-3-8 0 0zm521-2c-2-9-2 9 0 0zm50-1c-5-5 1 5 0 0zm-60-6c-1-13-5 14 0 0zm78 2c5-38-11-12 0 0zm-577-1c-1-4-3 3 0 0zm491-3c1-9-5 9 0 0zm-572-8c-2-3-3 6 0 0zm651 1c9-28-51-7 0 0zm-17-8c2-5 2 3 0 0zm-333 5c-13-5-7 4 0 0zm-12-1c-1-3-9 4 0 0zm-71-5c48-21-10-31-44-35-67-27 36 27 44 35zm-285-2c-7-6 4 6 0 0zm712-9c1-5-5 5 0 0zm-307-3c-2-4-1 3 0 0zm72-3c-47-32 15-98-29-117-16 30 1 99 29 117zm116-10c-46-15-15 3 0 0zm-27-5c-9 0 7 3 0 0zm116 2c-4-4-4 3 0 0zm-383-6c-5-19-1 15 0 0zm463 2c-7-5 4 6 0 0zm-12-1c24-17-43 4 0 0zm1-17c-6-6-6 6 0 0zm-772-5c-2-4-2 3 0 0zm589-3c1-6-8 5 0 0zm93-6c51 3-22-32-2 1l2-1zm-679-10c-2-3-3 2 0 0zm12-6c-6-16-7 7 0 0zm680 0c-3-7-3 7 0 0zm-558-5c19-13 64-10 70-38-33-37-63-5-56-4-17 24-21 16-20 43l6-1zm38-50c3-1 3 4 0 0zm-51 48c-9-7-8 5 0 0zm-111-3c-1-6-7 7 0 0zm899 1c-2-4-2 3 0 0zm-878-3c-3-3-2 6 0 0zm58 2c-2-4-1 3 0 0zm-79-8c-6 2 1 3 0 0zm872-3c-2-4-2 3 0 0zm-755-6c-2-4-1 3 0 0zm320-6c12-7-24 8 0 0zm-360 1c-6-9-4 6 0 0zm6-5c-2-4-6 7 0 0zm-83-10c-2-3-3 2 0 0zm-103-5c-1-4-2 3 0 0zm15-1c-1-5-6 6 0 0zm217-2c-3-4-3 3 0 0zm-210-6c39-14 37-20 1-23 1 9-33 20-3 28l2-1v-4zm5-14c5-2 1 2 0 0zm11-2c6-3 1 4 0 0zm606 20c-2-3-3 2 0 0zm-390-5c-2-5-8 6 0 0zm-220 0c-4-2-1 2 0 0zm5 0c-4-4-4 3 0 0zm122-8c8-25-28 27 0 0zm-162 1c16-18-34-14-2 4l2-1v-3zm140 1c-31-35 81-8-3-29-34 10-97-14-22 13 10 0 15 16 25 16zm6-23c4-4 2 4 0 0zm-84 17c5-10-16 7 0 0zm337-3c-20-7 69-117 9-46-50 12-69 43-15 48l6-2zm-115 0c0-5-7 6 0 0zm-301-3c-18-18-2-4 0 0zm27-3c-9-9 0 7 0 0zm802-1c24-21-21 0 0 0zm-814-1c-4-4-3 3 0 0zm-79-5c1-15-6 13 0 0zm107-1c-5-4 1 6 0 0zm-89-1c-2-5-6 6 0 0zm51 2c-4-8-6 5 0 0zm26-2c57-4-67-25-24-16-19 10 16 18 24 16zm-18-6c-13-15 17 6 0 0zm-26 5c-4-4-6 3 0 0zm-5-5c-7-6 2 7 0 0zm888 1c-5-4-5 3 0 0zm-256-8c7-13-8-5 0 0zm-674-3c-5-1-1 5 0 0zm191 2c4-17-12 4 0 0zm-28-2c-2-25-69 0 0 0zm12 1c-4-6-1 3 0 0zm486-1c-1-6-3 6 0 0zm23 1c1-7-8 2 0 0zm-502-1c-2-6-7 1 0 0zm695-3c-2-4-2 3 0 0zm79-1c-1-5-4 5 0 0zm-69-4c2-2 40-23 25-25-26-12-13 21-32 16-11 0 7 21 7 9zm9-16c3-1 3 4 0 0zm-270 18c-3-12 3-3 0 0zm247-4c1-5-5 5 0 0zm-54-1c4-13-6 7 0 0zm-698-2c25-15 38 3 58-12-31-1-53-17-76-27 14-21 54 39 90 10 19-8 49 44 47 22 3-25-45-20-29-45-12-47-99-64-122-26 16 26-45-7-27 13 48 35-40-26-16 0-12 14 24 43 22 43 14 5 34 24 53 22zm24-14c5-4 4 3 0 0zm81-6c3-4 4 3 0 0zm-109-4c2-8 3 7 0 0zm34-7c-4-14 10 11 0 0zm-101-30c13-11-3 9 0 0zm600 60c-2-4-2 3 0 0zm301-4c-10 2 1 4 0 0zm-762 0c-2-5-2 5 0 0zm28-3c-19-16-11 8 0 0zm708 2c-3-9-10 0 0 0zm8-2c18-19-18 0 0 0zm-135-1c-8-4 4 5 0 0zm-209 0c26-16-18-41-7-7 2 3 2 10 7 7zm1-6c4-4 4 3 0 0zm-5-8c-5-9 7 5 0 0zm220 12c-6-7 1 7 0 0zm-203-1c-2-8-9 2 0 0zm80-1c-3-12-6 6 0 0zm-607-4c-10-6 6 9 0 0zm115 0c-9-11 2 13 0 0zm699 2c-3-4-3 5 0 0zm60 1c-2-4-2 3 0 0zm-5-1c-2-4-2 3 0 0zm-344-10c-3-3-2 6 0 0zm317-1c-2-8-13 7 0 0zm6-2c1-4-4 0 0 0zm24-1c-2-11-9 11 0 0zm-534-2c1-4-4 0 0 0zm11-1c-2-4-2 3 0 0zm173-2c2-7-13 6 0 0zm-8-3c-1-4-3 3 0 0zm7-5c-3-5-1 5 0 0zm-158-1c-5-9-1 6 0 0zm147 1c-1-4-2 3 0 0zm149 0c-2-7-7 1 0 0zm11 0c-2-4-2 3 0 0zm9-7c-26-26-18 21 0 0zm-9 0c-3-6 8-1 0 0zm-17 0c-4-1 3 5 0 0zm33-1c-3-4-4 3 0 0zm52-4c63-28 13-20 35-43-27-4-47 15-69 12 14 10-28 28-10 24 28 8 32-6 44 7zm-3-14c3-4 2 5 0 0zm12-1c-22-36 17 1 0 0zm-19-3c7-10 14-5 0 0zm28 0c0-7 8 2 0 0zm1-9c3-4 2 3 0 0zm-46-2c4-5 4 5 0 0zm36-6c1-4 2 3 0 0zm8-1c-4-9 5 2 0 0zm-502 39c-4-4-4 3 0 0zm231 0c-2-14-11 6 0 0zm5-1c-7-5 0 5 0 0zm197-8c-8-5-7 16 0 0zm-440 5c-4-4-4 3 0 0zm237-3c1-7-13 2 0 0zm7 0c-6-4-4 3 0 0zm5-2c-3-1-1 5 0 0zm-11-7c-3 4 1 5 0 0zm73-3c-7-3-2-2 0 0zm-426-8c-2-4-1 3 0 0zm470-9c-15-21 9-8 0 0zm-382 0c-6-10-4 9 0 0zm560-1c-2-15-2 15 0 0zm-823-2c-3 0 5 6 0 0zm445-2c1-46-46-5-1 1h1v-1zm386 1c-2-4-2 3 0 0zm-576-2c23-3-15-4 0 0zm415-6c0-32 79-20 20-24-39 8-64 13-27 22l1 7 6-5zm-480-1c3-12-16-2 0 0zm519-2c50-17 14 11 0 0zm-750-2c-7-7-14 1 0 0zm906 0c40-22-26-6 0 0zm-1019-1c-2-5-2 5 0 0zm923-2c-2-4-1 3 0 0zm42-2c49-27-23-1 0 0zm-407-7c-3-5-3 5 0 0zm583 1c-4-2-1 2 0 0zm-609-2c-6-8-3 6 0 0zm-395 0c-8-4-3 3 0 0zm792 0c-5-3-1 3 0 0zm172-1c-5-11-11 7 0 0zm12 0c-2-14-19 10 0 0zm-560 0c0-5-6 3 0 0zm-120-7c24-33-61 18 0 0zm-251 2c-4-4-4 3 0 0zm270-1c4-6-13 4 0 0zm582 1c-1-4-2 3 0 0zm-731-2c-2-4-2 3 0 0zm16-3c-4-2-1 2 0 0zm135-2c-2-4-4 6 0 0zm-159-1c-6-5 1 5 0 0zm715 1c6-6-13 0 0 0zm-606-6c-4-4-3 3 0 0zm42-3c-3-4-3 5 0 0zm648 0c-3-5-6 4 0 0zm-539-6c-4-1 3 5 0 0zm283 0c-13-9-3 6 0 0zm-277-1c3-5-11 5 0 0zm-185-1c-6-15-13 3 0 0zm248-5c-4-6-1 3 0 0zm-3-5c6-16-11 9 0 0zm161-4c2-5-10 4 0 0zm-448-3c-4-11-11 0 0 0zm-389-1c-2-4-2 3 0 0zm875-4c-3-13-10 4 0 0zm-225-5c-4-10-1 7 0 0zm6-4c-1-6-7 7 0 0zM986 69c-2-3-3 2 0 0zm483-1c-3-4-3 5 0 0zm168-10c7-8-12 7 0 0zm32-1c-7-2 1 4 0 0zm-452-1c-2-4-3 3 0 0zm386-6c-6-2 0 4 0 0zm-7 0c-3-9-10 5 0 0zm-375-6c-4-5-1 5 0 0zm319-17c-5-1-1 5 0 0zm-601-6c-2-4-2 3 0 0zm696-5c-1-4-3 3 0 0zM936 9c-3-4-3 5 0 0zm286-6c-2-3-3 2 0 0zm-120-8c-4-4-3 3 0 0zM692 587c13-3 2 2 0 0zm150 0c1-2 8 1 0 0zm22 0c4-4 4 1 0 0zm14-1c3-1 3 4 0 0zm83 1c1-2 8 1 0 0zm96 0c4-2 4 3 0 0zm8 0c2-3 10 1 0 0zm10-1c3-3 5 2 0 0zm7 1c-5-6 8 3 0 0zm17-1c4-3 4 3 0 0zm54 1c4-2 4 2 0 0zm312 0c5-2 1 2 0 0zm18 0c3-4 2 3 0 0zm3-1c4-3 4 3 0 0zm32 1c2-4 1 3 0 0zm5-1c3-3 4 3 0 0zm14 1c3-4 2 3 0 0zm16-1c-25-8-26 1-20-22-10-17 48 20 72 14 70-6-13 20-43 7-1-13-8 9-9 1zm75 0c4-3 2 3 0 0zm45 1c3-4 3 3 0 0zm6-2c23-6-1 8 0 0zm10 1c3-1 3 4 0 0zm-24-4c4-4 2 3 0 0zm6 0c1-4 2 3 0 0zm-22-1c-19-6 22 2 0 0zm10 0c4-4 6 3 0 0zm156-8c-9-20 102-6 20-5-7 4-16 5-20 5zm-749-1c3-4 2 3 0 0zm-755-1c17-13 23-3 0 0zm1310 0c2-12 23 0 0 0zm27 0c-28-6 9-3 0 0zm-519-2c3-4 1 3 0 0zm13-1c5-15 7 7 0 0zm469 0c-1-5 9 3 0 0zm463-2c3-13 19 9 0 0zm-1745-4c9-5 2 4 0 0zm819-3c34-51 24-11 0 0zm-411-2c6-4 4 3 0 0zm5-1c6-4 6 3 0 0zm24-1c4-4 2 3 0 0zm416-10c-6-5 7-1 0 0zm-810-2c4-4 2 3 0 0zm718-6c0-4 7 1 0 0zm95-1c-1-5 5 3 0 0zm505-3c3-4 2 3 0 0zm-506-6c-11-12 11-6 0 0zm-366-21c10-52-37-70-75-78-47-17-94 21-127 8-32-8-71-51-11-24 23 5 50 17 39 15l118-16c21-13 28 4 42-4-9 17 11 22 11 20 21 4 29 11 28 35-24 4-17 42-25 44zm-44-89c-5-3-1 3 0 0zm-2-8c-3-3-2 6 0 0zm-189 0c-11-14-7 2 0 0zm1411 97c4-8 6 5 0 0zm-1013-3c5-2 1 4 0 0zm633 0c2-9 4 7 0 0zm-477 0c-6-22 8-6 0 0zm551-11c4-4 4 5 0 0zm-903-2c0-5 5 0 0 0zm-29-3c10-4-3 5 0 0zm940-4c3-4 3 3 0 0zm-924-2c2-4 4 3 0 0zm923-5c3-7 3 5 0 0zm-904-10c-2-4 7 3 0 0zm910 0c3-5 3 5 0 0zm10-2c3-4 4 3 0 0zm-46-1c3-4 2 3 0 0zm-1023-5c4-4 3 3 0 0zm1213 0c3-3 1 3 0 0zm-124-6c16-14 26-11 45-21 25-18-2 28 18 5-8-16 30 9 30-2 23 32-40-18-24 14-24-4-46-4-69 4zm14-6c-2-4-2 3 0 0zm-1114 4c2-5 4 1 0 0zm10-1c-21-3 37-4 0 0zm1201-1c-2-24 10-1 0 0zm-163-1c2-4 2 3 0 0zm156-3c6-10-1 9 0 0zm-908 0c-2-4 5 3 0 0zm921 0c1-5 3 5 0 0zm-1002-2c2-9 3 4 0 0zm985-8c-13-18 39-37 30-16 34-7 31 18-8 10 16 26-21-17-12 7-3 1-11 9-10-1zm3-7c-3-3-3 4 0 0zm-1258 7c-18-11 3-26 13 2l-3 2-10-4zm2-6c-2-4-2 3 0 0zm1133 9c-23-4 11-16 2 1l-2-1zm224 1c-29-11 18 1 0 0zm-20-7c4-7 2 4 0 0zm-9-4c3-3 3 4 0 0zm-6 0c1-4 3 3 0 0zm-1313-2c3-5 3 5 0 0zm1222-4c-2-5 4 1 0 0zm-970-1c0-14 5 5 0 0zm769-3c12-16 18 15 0 0zm93 2c5-7 3 2 0 0zm7 1c-2-5 7 2 0 0zm-894-2c8-17 23 3 0 0zm18-3c-1-11 11 6 0 0zm9-1c14-14 31-1 0 0zm999-5c0-5 0 4 0 0zm30 1c3-4 3 3 0 0zm-82-3c-5-6 12 3 0 0zm-214-2c-1-7 5 1 0 0zm-694-3c4-5 4 5 0 0zm-317-2c-1-4 6 0 0 0zm-5-5c-4-5 5 1 0 0zm1236-4c4-18 6 8 0 0zm-911-1c3-5 1 5 0 0zm757-6c3-5 3 5 0 0zm50-3c-8-10 11 3 0 0zm-830-1c-1-7 6 0 0 0zm19-4c3-4 2 3 0 0zm564-3c-1-9 6 1 0 0zm145-6c6-9 4 3 0 0zm-812-9c-4-16 6 2 0 0zm119-5c3-4 4 3 0 0zm-125-5c-4-4 9-3 0 0zm800-4c4-5 4 5 0 0zm-840 0c-23-4 27-3 0 0zm40-2c-16-13 15-11 0 0zm801-3c2-4 1 3 0 0zm-95-3c-15-9 16-6 0 0zm347-2c3-4 3 3 0 0zm-1063-1c-1-17 14-5 0 0zm-167-20c-10-24 13 19 0 0zm1432 3c2-13 9 6 0 0zm-1245-3c8-7-3 11 0 0zm8 1c-2-7 7 4 0 0zm1243 0c3-4 2 3 0 0zm-3-3c3-4 3 3 0 0zm4-3c2-4 1 3 0 0zm-77-5c45-30-8 29 0 0zm95 2c7-8 8 4 0 0zm-14-1c-3-7 9-1 0 0zm-1278-4c0-7 7 3 0 0zm1035-2c40-19 90-29 13-2l-11 3-2-1zm-1309-8c2-4 4 3 0 0zm5-1c22-13 35 3 0 0zm47-1c-16-7 30-7 0 0zm191-26c3-4 2 3 0 0zm-137-3c-15-6 16 1 0 0zm169-9c-18-19 19-5 0 0zm824-2c2-5 3 4 0 0zm-6-5c3-3 1 3 0 0zm15-2c1-9 13 2 0 0zm-13-4c-1-4 4 0 0 0zm-1167-5c4-5 3 5 0 0zm1176-2c5-15 13 4 0 0zm28-5c10-9-1 6 0 0zm-31-1c1-5 3 4 0 0zm11-3c4-4 4 5 0 0zm-452-2c3-8 11 4 0 0zm489-1c-2-5 4 1 0 0zm29-5c6-9 18 5 0 0zm-1084-2c-49-37 23 8 0 0zm580-3c-6-21 15 10 0 0zm517 1c3-4 3 3 0 0zm-1089-2c1-4 2 3 0 0zm582 0c4-4 3 3 0 0zm-20-2c3-1 3 4 0 0zm707-1c1-30 15 7 0 0zm-794-14c5-16 5 5 0 0zm552-5c1-7 4 3 0 0zm238-3c3-4 2 3 0 0zm-210-2c2-13 11 7 0 0zm-1286-4c-1-11 17 4 0 0zm8-5c1-9 6 2 0 0zm1321-1c3-4 1 3 0 0zm439-2c3 3 140-36 53-5-17 7-35 4-53 5zm-15-1c3-6 15 5 0 0zm-10-2c3-1 3 4 0 0zm-59-3c-5-7 8 2 0 0zm-219-1c5-2 1 2 0 0zm-1211-3c3-1 3 4 0 0zm149-2c3-4 3 3 0 0zm-152-4c3-7 2 9 0 0zm83 0c-3-5 12 5 0 0zm-12-1c2-4 4 3 0 0zm192-6c4-5 5 5 0 0zm1009 1c3-13 4-1 0 0zm-1232-4c-7-10 11 7 0 0zm168-1c11-23 5 7 0 0zm1069 1c3-4 3 3 0 0zm-1207-4c-9-15 18 6 0 0zm-309-3c-8-6 10 2 0 0zm318 1c-9-11 20 1 0 0zm203-2c2-4 1 3 0 0zm-266-4c1-8 7 4 0 0zm969-6c-1-7 6 3 0 0zm137-12c1-9 1 8 0 0zm3 2c3-10 18-3 0 0zm56 0c7-3 1 3 0 0zm-119-1c-8-5 12-2 0 0zm-48-4c4-14 4 15 0 0zm171 0c2-11 6 6 0 0zm-110 0c0-5 4 2 0 0zm-216-1c-2-8 9 5 0 0zm277 0c3-4 2 3 0 0zm-1158-2c3-4 2 3 0 0zm887-1c4-7 5 1 0 0zm50-1c4-4 3 3 0 0zm275-5c2-6 4 4 0 0zm-279 0c0-27 18-1 0 0zm17-2c-11-7 19-3 0 0zm-285-2c1-5 3 6 0 0zm-359-4c-2-8 3 5 0 0zm356 0c2-5 4 1 0 0zm-151-1c4-11 3 4 0 0zm191-1c3-5 3 5 0 0zm481-1c-2-4 7 3 0 0zm-75-2c15-10 47-43 33-26-26-12 54-11 13-21-39-5 33-18-10-36 7-16 50 23 68-15 49-9-55 43 2 19 37-36 27-10 13 11-35 3-37 37 7 20-12 7-48 17-28 23 0 23-18 19-41 16-1-19-8-5-37 3-6 2-12 9-20 6zm90-13c-4-8-7 8 0 0zm-14-8c-5-31-41-3 0 0zm-32-1c-3-4-3 3 0 0zm38-8c2-10-10 9 0 0zm-40-3c-9-6 0 8 0 0zm27 2c-2-4-2 3 0 0zm6-11c-2-9-16 11 0 0zm-5-5c-3-4-2 5 0 0zm-7-1c-5-4-3 3 0 0zm8-5c-11-5-5 4 0 0zm33-15c-6 3 2 3 0 0zm-21-1c5-7-7 5 0 0zm27-3c-3-4-3 5 0 0zm-312 73c2-4 1 3 0 0zm-911-2c7-26 9 4 0 0zm1197-1c5-5 4 5 0 0zM589 82c2-3 1 4 0 0zm188 1c1-4 3 3 0 0zm162-1c-6-12 12 7 0 0zm166-4c2-5 2 3 0 0zm593-1c7-13 8 8 0 0zm-337-4c10-15 25-38 43-47 25-11-26 35-24 39-7-7-9 14-19 8zm437-2c-5-25 10 3 0 0zm-571-4c1-15 7 6 0 0zm590-1c-17-7 13-14 0 0zm-12-1c-4-17 12 7 0 0zm-641-3c4-7 4 6 0 0zm374-1c3-5 3 4 0 0zm-150-1c3-8 11 6 0 0zm75 0c6-22 8-2 0 0zm-241-2c3-4 3 3 0 0zm236-1c4-4 4 5 0 0zm340-2c4-15 21-2 0 0zm-308 0c6-5-2 6 0 0zm214 1c1-16 16 5 0 0zM598 55c2-4 1 3 0 0zm279-1c1-9 8 5 0 0zm626 0c21-11 1-1 0 0zm189-1c4-5 1 6 0 0zm129-5c-3-7 10 5 0 0zm-307-1c3-7 6 7 0 0zm315 1c3-4 2 3 0 0zM387 46c-1-5 4 5 0 0zm1159 1c1-4 2 3 0 0zm8-2c2-7 1 7 0 0zm145 1c0-5 5 0 0 0zm114 0c4-5 5 3 0 0zM506 45c5-5 2 2 0 0zm974 0c3-4 3 3 0 0zm259 0c2-4 1 3 0 0zm96-1c7-4-4 5 0 0zm-326-1c4-5 4 5 0 0zm232 0c1-5 3 4 0 0zm-11-2c3-1 3 4 0 0zm-963-2C748 2 694 12 663-6c19-8 57-9 78 0 14 4 74 10 38 16-41-27-3 12-12 29zm946-1c-18-14 20 1 0 0zM592 36c-3-6 6 2 0 0zm1215-1c2-7 14 4 0 0zm-22-1c3-4 1 3 0 0zm-413-2c2-8 8 2 0 0zm431 1c5-2 1 2 0 0zm-347-4c-25-3 34-54 12-40 10 3 3 44 1 34 3-17-12 16-13 6zm-106 0c-40-14-45-62 7-26 17-10 72 25 23 20-12-2-15 2-30 6zm35-10c13-3-8-1 0 0zm-800 8c-8-16 11 1 0 0zm781-1c2-5 3 4 0 0zm159-3c3-5 3 5 0 0zm-680 0c3-4 4 3 0 0zm-345-2c-50-3-10-41 14-26 9 39-21 2-14 26zm74-2c-43-30 9-16 0 0zm3-4c-2-3-3 2 0 0zm1358 4c-17-13-59-43-64-31 15 2 40-1 57 1-4 12 20 19 7 30zm544-2c-14-26 9 5 0 0zm-1456 0c-5-13 20-1 0 0zm-591-2c-2-13 33 5 0 0zm1066 1c7-7 4 3 0 0zm58-1c4-4 2 3 0 0zM453 14c-4-7 14 0 0 0zm947 0c-4-26 15-7 0 0zm-599-2c-12-7 14 4 0 0zm706 0c6-8 3 6 0 0zm29-6c-6-9 8 5 0 0zM513 6c-3-5 5-1 0 0zm458-1c-3-5 9 4 0 0zm576-1c6-5 11 7 0 0zm-6 0c-8-17 9 0 0 0zm927 0c-2-7 9 5 0 0zM1057 4c0-11 23 4 0 0zm415-1c-1-6 6 1 0 0zm814-1c-49-12-39-19 7-4 6 4-5 7-7 4zm-788-1c-9-9 12 5 0 0zM959 1c4-10 13 8 0 0zm562 0c3-4 3 3 0 0zm941-1c-17-12 15 3 0 0zm-916-1c3-5 1 5 0 0zM528-2c-1-6 7 3 0 0zm875 0c2-3 1 4 0 0zM539-2c3-4 3 3 0 0zm985-1c-1-13 11 8 0 0zM775-6c-13-7 12 3 0 0zm1277-1c-23-13 28-1 0 0zm14 0c4-4 1 7 0 0zm-204-1c3-4 3 3 0 0zm-380-1c9-7 5 0 0 0zm360-1c6-8 2 6 0 0zm9 0c-3-5 11 2 0 0zM495-11c4-4 2 4 0 0zm178 0c1-4 2 3 0 0zm62 0c8-5-2 3 0 0zm34 0c2-4 2 3 0 0zm188-1c3-3 5 2 0 0zm287 1c4-2 4 3 0 0zm15 0c6-3 5 1 0 0zm19-1c20-1 4 3 0 0zm30 1c7-3 3 3 0 0zm27 0c5-2 1 2 0 0zm36-1c4-3 4 3 0 0zm35 1c1-4 2 3 0 0zm45 0c-2-3 5 1 0 0zm27 0c2-3 8 2 0 0zm13 0c3-3 1 3 0 0zm13 0c10-3 2 2 0 0zm7 0c2-4 1 3 0 0zm149 0c4-3 3 3 0 0zm200-1c5-1 4 3 0 0zm162 1c3-4 2 3 0 0zm4-1c4-3 1 3 0 0zm6 0c12-2 2 3 0 0zm8 1c2-4 1 3 0 0zm23 0c2-4 4 3 0 0zm176 0c-5-4 8 2 0 0zm-860-1c5-2 1 2 0 0z" fill="#6e7071"/><path d="M583 587c1-4 2 3 0 0zm3 0c1-4 2 3 0 0zm2 0c4-4 3 3 0 0zm77 0c2-3 2 3 0 0zm90 0c2-3 10 2 0 0zm16 0c3-3 1 3 0 0zm3 0c-34-26-92-5-86-7 39-43 108 28 134-32 40-40-51 58 17 21 24-18 62-16 89-31 22 3 48-10 71-14-7-29-1-57 7-47-19 13-1-45-40-30-11-13-13-24-38-26-4-11-7-11 5-37-1-19 31 0 26 2 0-14-3-19-6-24-3-12-48-8-40 14-11 14 19-43 4-36 23-10 15-17-15-25-56 10-36-5-15-8 39-19-19-8-27-18 7-16-34-17-51-27-25-16-44-42-63-57-49-17 28-9-14-39 9-8-49-5 6-8 15-16 52 52 38 34 10 26 29 48 58 61 33 12 88 33 111 13-32-6 18-17 8-10 31 11-10-26 31 8 22-16-22-35-28-55-11-43-10-28-58-50 24-11 64 25 80 19 3-10-38-62-16-45-3-15 18-27-9-46 21-17-8-48-13-73-17-19 9-41 14-10 2 20 6 20 14 44 15 41 44 37 38 54 11 22 27 19 14 35 22 31 46-34 53-1 36-1-64 22-46 21-9 9 9 11 8 24 0 2 20 27 39 32 32 6 65 20 100 12 26-16 3-45-6-67-15-25-35-31 5-37 40-33-1-106-49-115-35-9-34-8-16-17 8 3 40 18 37 7 32 5 20-13 66-8 41-3-13 18 5 30-9 18-4 18 0 33-7 25-9 44 4 42 7-26 4 6 19 17 26 13 59-23 92-19 24 15 46-17 58 5 22 15 49 3 62-17 18-10-18 44 7 38 23 3 30-1 60-1 20-11 80-37 61-63-12-16 38 20 44-13 24-47 31-31 14 11-20 31 15-3 38-7 19 0-36 16-24 29-11 14-21 28-46 29-44 9-24 4-59 26-32 40 6 19 32 12 37-19-19 14-32 29-31-14-32 31-68 30-6-5-25 2-11 17 19 22 32-17 65-11 42 12 72-45 106-51 27-6 42-42 73-31 1 12 28 4-5 15 6 13-30 14-49 20 16-19-51 20-41 17-45 21-58 55-86 74 12 21 21 11 33 22 7-34 18 23 53-22 10-29 40-44 53-66 5 28-63 63-68 90 5-4 39-4 54-22 11 13 45 10 36 8 24-12 3 22 32 24-12 9 38 28 47 47-24-3-68-54-110-33-27-7-59 47-64 14-39-1-37 15-53 13 27-30-35-32-53-20-18 6-44 11-42 32-5 16-36 27-9 53 47 0 54 16 105 30 29 24 56 3 37-21 3-43 6 54 36 32 30-12 74-35 63-25-12 10-24 42-9 24 27 11-26 20-24 18-29-1-41 16 0 29 24 25 53-8 27 31 6 22 15 5 6 31 12 7 12 18 41 33 49 32-68-33-53-17-28-8-28-16-39-49-4-27-27-28-47-29 8-8-9-4-20-14 4 19-35 9-26 12-2 9-40 28-26 22 7 29 4 10-1 49-16 17 18 45-10 29-26 12-51 1-70 13-45 14-103-32-107 0-12-12-60-2-53-1-52-1-113 6-101-2 10 0 40-22 26-51 13-55-17-26-22-15-4-29-6-38-1-37-29-23-54 36-89 54-2 35-2 6-29 29-8 28-33 30-8 4 2-20 2-14-11-29-18 1-84 19-49 36 11 7 49 9 19 12-22 0-17 0-35-18-27-13-1 30-29 18-9 6-42-24-32-8-14-2-34-9-56 3 0-15-47 12-65 5h-13zm10-1c-4-2-1 2 0 0zm447 0c-6-2-1 2 0 0zm218-7c-6-2 0 4 0 0zm-739-10c3-5-6 6 0 0zm670 0c1-6-36 2 0 0zm-457-5c9-5-28 2 0 0zm465-10c27-15 21-63-3-73-14-16-40-45-61-35-10 9-15 64-16 11 12-8-10-4-29-6-9 11-6 34-6 53 21 24 0 34 11 27 2-2 62 3 53 9-7-18 26 23 51 14zm-72-38c1-4 2 3 0 0zm-5-22c-3-5 5-1 0 0zm82-2c3-4 3 3 0 0zm-6-7c3-8 5 7 0 0zm-107-17c-4-8 6 6 0 0zm2-6c2-7 8 2 0 0zm17-3c1-4 2 3 0 0zm-20-1c-4-8 9-2 0 0zm9-3c2-4 1 3 0 0zm125 98c-2-4-1 3 0 0zm7 0c-2-3-3 2 0 0zm-172-2c-6-8-3 6 0 0zm-257-3c9-11-38 6 0 0zm421-2c17-17-16 8 0 0zm-408-4c37-19-31 2 0 0zm317 4c-9-11-17-2 0 0zm187-2c0-7-7 1 0 0zm-533-3c-6-4-6 5 0 0zm471 0c19-12-21-14 14-17-40-30-35 9-14 17zm-12-20c1-7 4 3 0 0zm-391 16c-6-11-8 6 0 0zm265 0c-4-4-3 3 0 0zm-244-3c30-43-31-17 0 0zm406 0c-4-2-4 3 0 0zm-429-4c-5-1 0 6 0 0zm423-1c-3-5-4 6 0 0zm-195-2c-5-5 5 7 0 0zm161-2c-3-4-5 3 0 0zm38-1c28-18-11-32 7-43-5 8-29 37-35 23 6 9 23 15 28 20zm2-11c3-4 2 5 0 0zm-3-7c5-2 1 2 0 0zm-21-5c-3-5 4 1 0 0zm-164 20c-8-10-8 10 0 0zm135 0c-3-5-3 5 0 0zm10-1c-17-26-29-25-14-1 7-9 7 4 14 1zm27-1c-4-4-3 3 0 0zm215-3c18-11-18 1 0 0zm-189 0c-3-4-3 5 0 0zm174 1c-2-6-7 1 0 0zm-6-3c1-11-10 0 0 0zm13-6c-11-15-5 9 0 0zm-146 2c-5-7-5 4 0 0zm129-4c-11-23-18-3 0 0zm6-5c-1-23-54-52-10-6-1-2 10 16 10 6zm-21-25c1-4 2 3 0 0zm32 25c-3-5-3 5 0 0zm-29-1c-3-9-6 5 0 0zm-579-1c41-1 34-74 12-34-4-4-6 37-12 34zm603-5c-8-2 3 10 0 0zm6 1c-6-7-2 8 0 0zm-28-2c0-17-14 9 0 0zm-152-3c-14-4-5-2 0 2v-2zm-292-7c-4-5-4 13 0 0zm329 0c-5-5-4 5 0 0zm10-7c-10-6-5 11 0 0zm-492-9c34-55-26 7 0 0zm122 3c-1-8-9 3 0 0zm398 1c-1-4-3 3 0 0zm-339-5c38-25 31-24 5-52 6 37-174-22-69 10 29 1 43 41 64 42zm338-4c-4-9-3 10 0 0zm-288-1c-3-3-2 6 0 0zm111 0c10-3-10 0 0 0zm-215 0c-3-4-2 3 0 0zm-102-2c3-9-12 7 0 0zm312-2c1-11-8 10 0 0zm199 2c-4-4-3 3 0 0zm-129-1c-70-6-50-85-41-119-18-11-32-23-32-9-35-43 15 20-23 23 44-15 13 106 80 102-3-6 19 9 16 3zm-77-3c-1-5-3 6 0 0zm-7-5c-1-4-2 3 0 0zm-337-2c-2-4-16 2 0 0zm602 1c-2-5-3 3 0 0zm38-5c-2-5-2 5 0 0zm-362-1c-4-5-5 4 0 0zm-331 0c-5-7-1 4 0 0zm472-3c41-12-44-2 0 0zm27-2c29-9 121 14 38-13 5-13-75 24-38 13zm182-9c-9-4 5 5 0 0zm-60-4c-7-12-3 11 0 0zm-649-4c-4-4-3 3 0 0zm103-10c-6-5-4 5 0 0zm-108-7c-2 1 1 5 0 0zm379-2c4-9-13 3 0 0zm-295-2c-16-3 7-3 0 0zm288 2c-4-6-1 3 0 0zm-270-2c5-11 11-28-6-3 1 2 3 7 6 3zm-79-1c-1-6-4 5 0 0zm372-1c6-16 5-29-12-14-25-4 7 19 12 14zm-10-6c-8-7 8 3 0 0zm4-3c-2-4 7 3 0 0zm-394 9c-4-6-3 6 0 0zm378-3c-6-10 1 14 0 0zm-7 0c-5-2 1 6 0 0zm-366-2c-2-12-7 5 0 0zm8-9c-7-12-7 5 0 0zm113-1c17-14-20 7 0 0zm-41-2c3-9-13 3 0 0zm5-2c-11-36-1 14 0 0zm10-1c20-11 87-13 89-44-32-60-67 18-74-15 7 22-25 31-21 57 3 1 0 10 6 2zm18-37c3-14 1 13 0 0zm266 36c5-11-9 6 0 0zm-309-7c21-32-26 12 0 0zm319 3c-1-4-2 3 0 0zm4-4c-1-5-4 5 0 0zm-398-14c-1-4-3 3 0 0zm74-1c11-28-31-31-13-2l13 2zm427-6c-3-6-3 7 0 0zm-169-1c-3-3-3 4 0 0zm-139-3c-3-5-4 5 0 0zm-119-15c0-5-5 5 0 0zm-39 0c-2-3-3 3 0 0zm4-9c34-26 48-31-20-42-49-5-92 2-18 17 31 30 23 20 28-2 25-9 1 33 10 27zm-40-36c1-4 6 2 0 0zm5 0c7-4 9 3 0 0zm247 33c50-12 55-60 75-119 5-8-36 95-80 63 1 30-23 40 15 42-6-3-20 27-10 14zm-72-10c25-15-48-8 0 2l2 1-2-3zm6 3c-2-4-2 3 0 0zm8-2c-7-9-9 2 0 0zm-231 0c-3-4-8 3 0 0zm599-7c-5-7-1 4 0 0zm137-4c40-15 70-24 7-15-23-2-35 24-7 15zm-551 2c-2-4-2 3 0 0zm-190-4c-2-6-9-2 0 0zm520-8c3 5 36-26 9-28-6 10-29 23-9 28zm15-11c3-4 3 3 0 0zm289 3c-2 1 1 5 0 0zm-834 0c-11-3 5 5 0 0zm713 1c-2-4-2 3 0 0zm-723-7c-3-4-4 3 0 0zm534 0c23-19-21 2 0 0zm-32-3c9 3 18-38 0-25 3 12-34 11-4 25l2 1 2-1zm181-3c-3-4-7 5 0 0zm-198 0c-6-7 0 6 0 0zm82-2c-2-3-3 2 0 0zm-359-5c-6-9-1 8 0 0zm-81 0c1-21-12 4 0 0zm393 1c-2-4-2 3 0 0zm22-3c51-40-31 2 0 0zm-18-1c14-43-11-8 0 0zm-55-4c27 0 6-42 3-38-16-28-38 28-28 25-3 9 17 20 25 13zm-284 1c4-6-17 5 0 0zm347-1c-1-4-2 3 0 0zm-591-5c-17-17-10 4 0 0zm597 1c6-12-14-3 0 0zm7-5c3-13-11 7 0 0zm21 0c-8-26-8 7 0 0zm-78-2c-3-5-4 2 0 0zm86-6c-5-5-11 6 0 0zm-449 1c-2-4-1 3 0 0zm423-3c-1-4-2 3 0 0zm78 0c-7-2-5 3 0 0zm51-2c-4-7-8 7 0 0zm-90 0c-2-4-2 3 0 0zm-139-1c-1-4-2 3 0 0zm46-1c-2-4-1 3 0 0zm53-2c-4-5-3 5 0 0zm-103-1c-4-1 0 4 0 0zm-274-3c-2-5-2 5 0 0zm389 0c-4-4-4 3 0 0zm-359-2c-2-3-3 2 0 0zm-42-2c19-34-17 1 0 0zm218-1c-2-5-2 5 0 0zm44-3c-6-5 2 5 0 0zm13-1c23-21 5-35-10-30-2 11-2 27 10 30zm-16-9c-5-26-7 23 0 0zm-47 5c-1-4-3 3 0 0zm-463-10c-1-5-4 5 0 0zm609-5c-2-6-4 8 0 0zm-10-1c22-6-3-11 4-12-16-13-14 17-4 12zm-623-3c-3-4-3 5 0 0zm614 0c-5-5-5 5 0 0zm110-2c-2-4-2 3 0 0zm9-1c4-7-14 4 0 0zm10-2c18-15-15-1 0 0zm-138-1c-4-8-4 6 0 0zm88 0c6-37 44-56 72-63-27 3-169 27-84 30 1 10-6 38 12 33zm8-29c4-4 4 3 0 0zm-5-4c-5-27 32-10 0 0zm-48 33c-1-4-3 3 0 0zm-93-1c-1-4-2 3 0 0zm3-4c-12-12-2 6 0 0zm-88-7c35-23-19-21-19-52-32 40 0 51 19 52zm72 4c6-11-13 5 0 0zm125 0c4-25-44-28 0 0zm77-8c-1-7-7 5 0 0zm5 1c-2-4-3 3 0 0zm-758-1c-2-5-3 3 0 0zm774 0c-1-4-3 3 0 0zm-14-3c-6-10-7 7 0 0zm-27-1c13-10 39-45 38-30-12-4-68 27-38 30zm-468-4c9-52-23 23 0 0zm508-4c4-15-17 20 0 0zm-264 1c-35-53-19-15 0 0zm294-1c-7-3-7 8 0 0zm5-1c-6-4-4 3 0 0zm-156-4c-3 4 1 5 0 0zm129 0c-2-7-2 6 0 0zm44-5c1-5-6 5 0 0zm-389-1c-1-25-27-8 0 0zm-175-2c-1-9-2 7 0 0zm335 0c-2-4-3 3 0 0zm5-7c5-23-11 11 0 0zm-341 0c-2-8-5 4 0 0zm60-2c-6-4-1 9 0 0zm-62-4c-6-6 2 6 0 0zm-24-2c-2-5-2 5 0 0zm-2-6c9-24-19 16 0 0zm23 1c-11-13 4 11 0 0zm-31 2c-3-9-8 1 0 0zm329-2c33-24-41 7 0 0zm57 2c-3-10-6 2 0 0zm-8-1c-2-4-1 3 0 0zm-62-4c1-12-14 2 0 0zm-290-3c23-11-28-36-2 1l2-1zm308-9c22-7-27-8 0 0zm285-5c-2-4-1 3 0 0zm-273-5c-4-14-8 10 0 0zm278 2c-3-4-2 3 0 0zm25-2c-4-2-1 2 0 0zm-284-3c5-12-10 6 0 0zm38 0c-3-4-3 5 0 0zm230-3c-2-4-2 3 0 0zm-218-3c-2-4-2 3 0 0zm-184-3c-3-5-1 6 0 0zm-232-3c-8-2 3 6 0 0zm228 1c13-20-8-21 0 0zm448-15c-4-6-5 11 0 0zm-11-2c0-7-4 10 0 0zm17 0c2-9-6 5 0 0zm-455-1c-2-3-3 2 0 0zm409-10c-5-4-3 3 0 0zm-424-41c-11-9 0 6 0 0zm-66-18c-4-4-4 3 0 0zM827 587c-2-3 5 1 0 0zm67-1c23-11 4-3 0 0zm75 0c10-2 2 3 0 0zm6 1c1-3 6 1 0 0zm44-1c-3-9 8 5 0 0zm48 0c4-3 2 3 0 0zm40 1c22-3 4 2 0 0zm13 0c3-3 1 3 0 0zm4-1c-19-14 5-22 19 1l-19-1zm25 1c3-4 2 3 0 0zm12-1c4-3 1 3 0 0zm135 0c10-2 2 3 0 0zm180 1c4-4 3 3 0 0zm106 0c-75-25 76-9 33-1-8 2-24-1-33 1zm102 0c-9-3 12 0 0 0zm60 0c2-4 1 3 0 0zm-303-1c5-2 1 2 0 0zm-864-3c3-4 3 3 0 0zm390-1c-9-20 12 6 0 0zm-11-2c3-5 3 5 0 0zm-432 0c-16-30 78-3 10-2h-3l-7 2zm1030-1c-33-19 0-9 0 0zm-984 0c3-4 3 3 0 0zm977 0c1-6 7 5 0 0zm-543-4c-5-4 8 2 0 0zm7-1c23-8 4 7 0 0zm70 0c-2-6 6 3 0 0zm12-3c6-18 16 6 0 0zm-100 0c2-4 1 3 0 0zm28-1c16-18 26-7 0 0zm66-1c-30-13 22-9 0 0zm464 0c2-4 4 3 0 0zm272-1c22-12 50-4 0 0zm-841-3c-6-6 11 4 0 0zm690-3c4-4 2 3 0 0zm-950-2c6-3 2 3 0 0zm789 0c6-4 6 3 0 0zm-445-2c1-7 8 5 0 0zm87-4c3-4 4 0 0 0zm355-2c2-9 6 1 0 0zm-691-6c3-4 2 3 0 0zm167-24c-2-5 4 1 0 0zm10-12c4-4 4 5 0 0zm194-4c-2-4 7 3 0 0zm-307-4c0-5 5 0 0 0zm635-2c-1-9 21 7 0 0zm-623-5c13-13 8 1 0 0zm103 0c2-4 1 3 0 0zm-90-7c5-10 4 2 0 0zm689-3c6-3 1 4 0 0zm-775-4c-5-31-35-53-61-50-66-9-42-17 5-13 37 9 7-13 55 19 35-5 10 46 1 44zm90 2c2-5 3 3 0 0zm9-7c8-35 44-6 0 0zm647-4c2-4 1 3 0 0zm-623-14c5-13 9 3 0 0zm-11-2c14-17 19-1 0 0zm818-10c0-5 4 2 0 0zm10-5c8-15 22 6 0 0zm9-2c-6-1 0 4 0 0zm-1137-2c-10-2-63-25-36-21-4-4 82 26 62 15-12 1-17 6-26 6zm-32-20c-4-2-1 2 0 0zm-23 16c-16-15 25 8 0 0zm1108 3c3-6 2 4 0 0zm164-2c-3-7 6 7 0 0zm-1232-2c-1-5 7 3 0 0zm1196-1c-3-5 9 4 0 0zm-119 0c2-4 1 3 0 0zm-1028-2c2-4 2 3 0 0zm19-3c1-4 2 3 0 0zm1166-3c-43-16 42 7 0 0zm21 1c6-4-2 6 0 0zm-1178-1c8-4 1 4 0 0zm6 0c3-5 3 5 0 0zm901 1c2-4 1 3 0 0zm235-3c2-5 4 3 0 0zm-920-5c-10-6 17 1 0 0zm-10-3c4-9 7 5 0 0zm-335-9c2-4 4 3 0 0zm342-1c3-1 3 4 0 0zm7-4c5-4 2 3 0 0zm704-8c10-3 1 3 0 0zm-701-3c-3-7 8 5 0 0zm686-4c-11-4 14 2 0 0zm-10-2c-16-9 9 1 0 0zm-647-2c5-7 0-1 0 0zm629-3c1-4 2 3 0 0zm-711-5c6-3 1 4 0 0zm71 1c1-4 2 3 0 0zm-66-2c18-13 26-4 0 0zm51-1c4-5 5 3 0 0zm-30-1c1-21 7 2 0 0zm943-1c-50 0-12-31 3-4 2 3 2 8-3 4zm-906 0c2-9 3 4 0 0zm-7-6c0-7 9 5 0 0zm505 0c2-4 2 3 0 0zm14-7c-11-7 16-1 0 0zm344-4c3-5 3 5 0 0zm-202-1c5-5 6 5 0 0zm251-1c2-4 1 3 0 0zm-54-1c1-4 3 3 0 0zm-196-3c-7-8 12 4 0 0zm-137-2c2-5 4 3 0 0zm140-6c12-25 1 15 0 0zm181 1c4-4 4 3 0 0zm-928-15c2-4 1 3 0 0zm4 0c2-5 3 3 0 0zm6-3c4-8 4 9 0 0zm-35-2c6-9 11 6 0 0zm11 0c3-6 5 5 0 0zm-20-3c-32-27 19 5 0 0zm-23-18c-8-22-57-2-38-31-2-17 40 10 48 33-39-16 15 14-10-2zm-14-15c-4-9-11-3 0 0zm-1-12c-16-12-4 10 0 0zm1186 31c4-5 6 6 0 0zm6-1c5-4 4 3 0 0zm-1113-7c4-5 4 1 0 0zm965-1c38-25 36-9 0 0zm-998-2c0-9 17 3 0 0zm-78-3c1-9 6 5 0 0zm-19-2c1-8 2 9 0 0zm-180-1c3-4 2 3 0 0zm262-1c1-4 2 3 0 0zm-15-6c-15-4-6-17 0 0zm932-6c3-5 2 5 0 0zm-915-6c3-1 3 4 0 0zm112 0c-18-19 28-10 0 0zm-5-1c3-5 3 5 0 0zm16-2c4-4 4 3 0 0zm-25-4c-1-9 7 7 0 0zm-15-1c5-4 9 2 0 0zm27-3c7-7 4 3 0 0zm754-1c4-4 4 3 0 0zm8-2c21-17 50-19 14-2l-3 1-11 1zm24-11c-1-4-2 3 0 0zm-765 9c-13-12 18-29 4 0h-4zm732-6c2-4 1 3 0 0zm-761-4c-28-1 7-8 0 0zm20-4c9-4-4 5 0 0zm631 0c3-10 12-1 0 0zm115 0c-7-9 20 0 0 0zm17-1c3-15 15 0 0 0zm-754-3c3-5 3 4 0 0zm-58-3c-37-9 17-8 0 0zm-123-3c3-4 4 3 0 0zm415-2c1-9 6 2 0 0zm525-1c0-11 5 6 0 0zm-839-3c3-1 3 4 0 0zm-7-3c3-5 3 5 0 0zm632-1c3-4 3 3 0 0zm-393-1c4-7-3-1 0 0zm70-9c-1-7 6 5 0 0zm311 1c-3-5 6 2 0 0zm197-1c-1-5 5 3 0 0zm-132-2c4-7 4 6 0 0zm-42-2c2-5 3 4 0 0zm-679-16c2-5 6 3 0 0zm-24-5c-21-23-45-47-23-39 11-6-17-35 6-31 8-15 32 62 62 44 40 7 67-2 5 10-32 2 9 27-50 16zm11-19c-6-7-3 3 0 0zm164 13c-17-8 23-1 0 0zm8-3c4-4 4 5 0 0zm-247-4c-6-7 8 4 0 0zm873-3c-15-18-14-11 13-31 9 3 39 3 17 15-7 7-24 19-30 16zm560 2c2-4 4 3 0 0zm-1477-2c12-7 6 3 0 0zm1487-1c3-5 3 4 0 0zm-238-1c-9-6 14 2 0 0zm-978-2c-6-10 13 8 0 0zm971 2c-3-6 7 2 0 0zm24-1c4-7 7 4 0 0zm8 1c12 8 97-52 66-19 11 11-76 23-58 18l-8 1zm-37-1c-1-5 9 3 0 0zm-272-1c10-8 8 2 0 0zm259 0c-3-5 4 1 0 0zm273 0c11-17 13 10 0 0zm-392-1c-59-10 13-16 36-22 25-15 54 23 17 19-7-7-35 0-53 3zm53-9c8-7-16 3 0 0zm-1198 7c16-2-2-1 0 0zm-13 0c4-5 7-2 0 0zm1562-1c23-14 22-4 0 0zm-623 0c6-4 4 3 0 0zm-982-4c-8-18 16-44 29-12 16 8-30-1-29 12zm152 0c-3-5 6 6 0 0zm206 0c-12-46 28-5 5-3 1 3-4 7-5 3zm925 1c-2-5 4 1 0 0zm-1138-4c2-4 2 3 0 0zm1006-4c3-4 3 3 0 0zm-776-2c4-9 4 6 0 0zm-30-4c3-6 3 6 0 0zm923 1c-1-6 6 1 0 0zm-198-2c3-4 3 3 0 0zm-561-2c-5-8 9 6 0 0zm34 1c11-7 8 4 0 0zm500-2c-4-15 8 3 0 0zm16 1c6-8 5 4 0 0zm-773-3c2-8 11 2 0 0zm-15-1c-38-5 17-7 0 0zm879-1c-2-7 5 5 0 0zm-5 0c1-4 2 3 0 0zm-124-2c2-6 7 4 0 0zm28 0c17-20 47-15 0 0zm-19-1c1-7 18 5 0 0zm417-1c3-5 4 5 0 0zm-1157-2c3-1 3 4 0 0zm58 1c-58-3 26-13 0 0zm14-1c-13-9 19 3 0 0zm795 0c0-5 4 2 0 0zm-858-1c6-4 6 3 0 0zm196-1c3-8 1 6 0 0zm-176 0c3-7 9 5 0 0zm132 0c6-4 5 3 0 0zm588-2c3-4 3 3 0 0zm-1038-3c-33-31 3-13 0 0zm12-2c-7-14 16 9 0 0zm901 0c7-6 5 3 0 0zm-887-2c5-5 3 6 0 0zm172 1c3-3 1 3 0 0zm677-3c3-4 3 3 0 0zm144-2c4-4 3 3 0 0zm-1012-2c-10-15 10 5 0 0zm420 0c5-2 1 2 0 0zm70-4c3-1 3 4 0 0zm323-5c1-7 5 4 0 0zm-47-9c-12-19 17-2 0 0zm-18-1c-11-4 12-1 0 0zm-6-3c3-1 3 4 0 0zm21-8c3-3 5 2 0 0zm112-4c7-12 1 11 0 0zm287 2c-6-4 10 3 0 0zm-300-6c4-8 10-3 0 0zm318-1c2-18 12 1 0 0zm-117-2c-4-6 15-2 0 0zm-286-4c3-5 3 5 0 0zm369-1c18 8 8 4 0 0zm-366-2c6-19 14-2 0 0zm350-3c6-3 1 4 0 0zm53-3c8-17 7 12 0 0zm-837-7c6-6 4 6 0 0zm838 0c-10-28-35-19-36-20-4-40 9-8 35-21 57-41 3 22 0 13 64-42-7 17 1 28zm-8-24c-4-5 2 5 0 0zm-384 22c1-6 5 3 0 0zm368-1c8-13 4 4 0 0zm-823-1c2-4 5 3 0 0zm460-1c2-5 4 1 0 0zm297 0c1-4 3 3 0 0zm-292-4c20-20 8 1 0 0zm174-1c1-5 2 5 0 0zm165-2c4-4 4 3 0 0zm-183-2c-48-32 54 14 0 0zm72-2c3-5 2 7 0 0zm-680-2c-2-7 7 0 0 0zm21-1c2-3 1 4 0 0zm661 0c3-4 1 3 0 0zm-94-2c3-4 4 3 0 0zm-176-3c-9-9-65-25-26-35 17 24 83 22 25 37l1-2zm102-2c-1-17 12 11 0 0zm92 2c3-4 2 3 0 0zm-802-6c-21-17-94-15-53-28 15-7 54 3 41 7 15 7 44 26 12 21zM711-6c-8-4-4 5 0 0zM494 16c-29-35 46-6-3-11 2 1 8 13 3 11zm971-1c3-5 3 4 0 0zm67 1c3-4 4 3 0 0zm-507-1c2-5 3 3 0 0zm447-2c-11-9 12 1 0 0zm452-2c-21-9-30-23-12-22 10-9 25 31 12 22zm-8-14c-5-4-7 7 0 0zm562 16c2-5 3 3 0 0zM1383 9c4-7 5 5 0 0zm426-6c6-5-2 6 0 0zM558 3c2-4 2 3 0 0zm1095-1c3-1 3 4 0 0zm82-2c-3-10 10 8 0 0zm-658 0c6-11 5 3 0 0zm1201 0c10-4 10 3 0 0zm-630-2c1-4 2 3 0 0zm-186-2c4-10 8 1 0 0zm-385-1c3-3 1 3 0 0zm815-1c-26-7 12-6 0 0zm-13-3c1-11 3 10 0 0zm-58 0c4-8 2 7 0 0zm230 0c-10-4 15-4 0 0zM719-11c1-3 4 4 0 0zm11 0c5-2 1 2 0 0zm198-1c5-2 1 3 0 0zm159 0c10-3 1 4 0 0zm10 0c3-2 1 3 0 0zm15 1c1-3 2 3 0 0zm30 0c1-4 2 3 0 0zm3 0c1-3 2 3 0 0zm14-1c4-3 1 3 0 0zm149 1c3-4 2 3 0 0zm161 0c3-4 1 3 0 0zm22-1c3-2 1 3 0 0zm334 0c4-3 4 3 0 0zm48 1c2-3 2 3 0 0zm52 0c2-4 1 3 0 0zm118 0c7-3 1 2 0 0zm209 0c3-4 2 3 0 0zm-357-1c5-2 1 2 0 0z" fill="#4c5051"/><path d="M756 586c3-2 1 4 0 0zm22 1l3-1-3 1zm8 0c-4-9 13-2 0 0zm11 0c3-4 2 3 0 0zm102 0c2-4 2 3 0 0zm35 0c2-4 1 3 0 0zm5 0c8-5 4 3 0 0zm12-2c-3-6 10 8 0 0zm29 2c2-4 2 3 0 0zm12-1c3-2 2 4 0 0zm3 0c4-5 3 6 0 0zm4 1c1-3 6 2 0 0zm13 0c3-4 3 3 0 0zm18 0c2-4 6 4 0 0zm7-1l4 1-4-1zm83 0c3-2 1 4 0 0zm17 1c4-3 4 3 0 0zm4 0c3-4 3 3 0 0zm4 0c-1-4 5 1 0 0zm28-1c53-22 26-53 19-103-37-52-70 26-116 55-11 41-48-27-11 1 75-61-60-3-20-21 24-19 48-35 48-62 41-18-29-30-38-3-5-22 73-42 90-22 15-13 64 41 73 53 15-28 54-57 45-5 15 45-1 37 3 50 7 19 33 16 56 23 10-19 57 17 78-2 35 38 0-53 29-8 49 12-18 60-16 38-46 22-79-31-121-2-42 4-76 10-119 8zm220-9c-15-14-3 14 0 0zm-182-3c-3-4-1 5 0 0zm226-1c-2-4-1 3 0 0zm-49-4c-17-15-45 10 0 0zm25-4c-5-5-7 22 0 0zm-204 4c-3-6-4 6 0 0zm11-3c0-23-7 13 0 0zm187 1c0-8-12 6 0 0zm-158 0c-6-11-9 2 0 0zm3-2c-6-6 3 6 0 0zm-16-1c-2-4-2 3 0 0zm14-5c10-65-48 10 0 0zm-22-4c-6-6 2 9 0 0zm70 0c-3-4-1 5 0 0zm147-1c-5 2 3 3 0 0zm-188-1c-1-6-4 5 0 0zm186-2c-19-9-4 7 0 0zm-220-1c-1-6-3 3 0 0zm-5-8c8-10-13 7 0 0zm47 0c-2-4-2 3 0 0zm-38-7c-5-2 2 5 0 0zm-4 1c-3-7-7 6 0 0zm-12-5c12-15-12-8 0 0zm21-2c-4-5-4 6 0 0zm-11-3c-1-23-5 5 0 0zm9-8c-3-5-3 4 0 0zm-15-3c6-8-11 6 0 0zm-144-8c3-8-10 6 0 0zm6-3c-3-5-4 4 0 0zm148-3c-3-13-26 12 0 0zm30-4c-7-4 1 7 0 0zm-34-7c7-12-11 7 0 0zm-21-1c-3-4-3 7 0 0zm-87-19c-9-10-16 4 0 0zm3-3c-2-4-1 3 0 0zm133 0c-1-4-2 3 0 0zm-156-12c-2-4-2 3 0 0zm36-27c-3-6-5 5 0 0zm5-3c-1-10-13 5 0 0zm121 161c9-9 9 6 0 0zm69-2c-1-18 14 14 0 0zm258 2c3-2 2 4 0 0zm6 1c-53-10 35 8 28-2-9 2-19 2-28 2zm144 0c2-3 8 2 0 0zm7 0c0-4 5 3 0 0zm-466-1h2-2zm-479-2c4-23 23 4 0 0zm140-3c-5-9 14-2 0 0zm11-6c-34 6-3-34-5-26 37 15 19 4 5 26zm-177 4c-3-5 4 1 0 0zm354-1c0-9 20 8 0 0zm589-4c-2-7 5 4 0 0zm-1009 0h2-2zm10 0c1-5 3 4 0 0zm763-1c-49-9 34-67 1-20 7-1 28-96 25-26-9 17 6 51-26 46zm14-19c-5-4-1 6 0 0zm-628 17c2-10 4 6 0 0zm184 1c-1-7 6 2 0 0zm-135-2c0-7 8 3 0 0zm-24-1l6-4-6 4zm-32-1c5-7 11 5 0 0zm44-1c1-10 12 6 0 0zm189-1c2-5 3 4 0 0zm606-1c0-6 7 2 0 0zm-881-1c3-4 2 3 0 0zm874 0c3-4 3 3 0 0zm-821-1c6-13 24 3 0 0zm339-1c5-6 5 5 0 0zm-301-1c4-5 4 4 0 0zm147 0c1-5 4 2 0 0zm-170-3c4-5 4 4 0 0zm93-1c6-9 7 1 0 0zm-71-3c-1-8 6 3 0 0zm771 1c3-5 2 4 0 0zm-738-2c4-5 3 6 0 0zm32 1c5-5 4 4 0 0zm485-3c12-13 7 4 0 0zm-536 0c3-16 21-1 0 0zm48 0c3-4 3 3 0 0zm-13-1c2-9 5 0 0 0zm343-6c2-7 7 6 0 0zm46 0c4-4 2 5 0 0zm324 1c3-4 2 3 0 0zm-659-1h2-2zm-62-1c4-4 4 2 0 0zm359-2c3-9 3 7 0 0zm198 2h2-2zm-547-1c-2-6 6 2 0 0zm8-1c3-5 3 5 0 0zm684 0c4-30 36-3 0 0zm-679 0c0-6 5 1 0 0zm488 0c3-4 3 3 0 0zm-115-2c-5-9 5-3 0 0zm163 0c2-6 3 4 0 0zm-487-1c3-4 3 3 0 0zm650-3c3-5 3 5 0 0zm-644-1c13-15 23-3 0 0zm-20 0c3-4 3 3 0 0zm275-2c-2-8 6 3 0 0zm192-2c1-5 3 4 0 0zm-456-4c-21-29 22 3 0 0zm630-1h2-2zm-471-4c4-6 4 6 0 0zm-148-1c3-4 3 3 0 0zm4-1c3-4 3 3 0 0zm-13-1c3-4 3 3 0 0zm25-2c3-10 9-2 0 0zm-4-3c3-9 3 9 0 0zm451 1c4-5 4 5 0 0zm-60 0c-3-9 7 2 0 0zm-404-2c-4-41 56-37 0 0zm16-24c0-11-11 15 0 0zm-24 23c2-7 4 6 0 0zm31 1c1-6 6 2 0 0zm393 0c-2-6 6 2 0 0zm-262-8c1-16 2 15 0 0zm257 2c-39-18-54-76-112-71-47-13 34 11-11 4-31-11-40-26-3-8-25 1-68 19-52-6-62-4-123-29-184 0-40 32-93-2-120-6-32-25 44 0 17-33 3-45-44-76-76-74 43-36 74 46 111-4 44-16-18-42-4-75-33-7-51-41-56-65 26 26 38 28 41-3-21-38 16-26 9 9 23 13 58 23 15 34 17 42 43 60 79 68 23 6 44-21 5-22-26 0-81-28-23-20 41-15 69 10 114-13 8-32-3-68-18-95-24 1 38 5 26-26-4 24-17 96 40 88 9-12 10-43 22-9-19 18-23 48-49 44 47 26-10 49-34 22-41 14 18 43-18 65-12 33 48-35 24 14 16 18 56 7 47-22 22-21 10-63 44-56-17-17 66-39 33 0 16 33 94-8 46-38-13-33-43 31-20-29 0-30 3-38-18-15-23 9-53 4-32 40-18 37-26-86-23-73 46-9 74 38 117 4-33-24 24-43 45-20 30-11 34-26 26 15-25 11-71 20-27 51 26 35 34 13 48-11 53 6-49 46 12 47 17 21 15 23 33-2 23-5 104-31 48 4-36 13-30 37-20 57-36 9 9 19-34 28-40-6-68 23-77 51-8 21 14 44-4 43 57-14 113 26 174 37 25-7 63-8 40 3-34 43-55 3-101-14-45-25-130 40-140-26-2-41 53-84 60-100-25 20-29-7-32 8-22 51-81-40-50 11-22-3-60-51-23-8 9 26 19 30-4 31 15 19 35 48 27 68 20 58 91 47 137 70-9 20-30-24-55 1-26 2-17 23-20 27zm21-29c-6-8-4 8 0 0zm23-9c-6 0 1 4 0 0zm-64-14c-3-3-1 2 0 0zm201-4c25-41-1-45 0 0zm-39-2c-4-6-3 8 0 0zm34-5c-2-4-2 3 0 0zm7 0c-1-4-2 3 0 0zm5-3c1-7-7 5 0 0zm5 0c-4-5-3 4 0 0zm-592-4c-3-5-3 4 0 0zm4-5c-3-14-6 5 0 0zm335 1c-1-4-3 2 0 0zm-343-5c69-46-50 0 0 0zm-2-7c3-4 3 3 0 0zm-31 6c-11-6 3 6 0 0zm456-4c-1-4-2 4 0 0zm-464 0c-1-4-2 3 0 0zm21-1c-4-4 0 5 0 0zm366 0c-1-6-3 6 0 0zm-12 0c-1-4-3 2 0 0zm85 0c-1-6-3 3 0 0zm-136-3c-7-15-9 5 0 0zm-294-1c-3-6-3 6 0 0zm266 0c-3-5-6 8 0 0zm91-2c-8 4 1 3 0 0zm-12 0c-6-2 2 6 0 0zm-63-3c-20-31 81 22 44-23-6-63-61-13-56 24l4 2 8-3zm6-26c2-8 3 5 0 0zm-6-1c1-5 7 2 0 0zm54 31c-1-4-3 2 0 0zm-81-1c-3-5-2 4 0 0zm-89-3c-3-3-1 6 0 0zm97-1c-2-4-3 5 0 0zm-298 1c-1-4-3 2 0 0zm31-1c34-8 88-65 99-54-31 40 26-14 9-27-50-23 7-17 19-1-18-80-104-12-124 33-15 15-7 50-3 49zm27-18l6-3-6 3zm-17 0c3-5 2 4 0 0zm-6-6c-15-9 36-4 0 0zm22-7c8-11 36-8 11-1l-11 1zm50-19c4-5 3 4 0 0zm35-9c-4-13 13 2 0 0zm-1-37c-8-8 9 3 0 0zm-44-5l5-2-5 2zm-14-2c3-4 2 3 0 0zm8 0c4-15 7 5 0 0zm18-13h2-2zm266 117c-2-4-1 3 0 0zm-200-1c-4-5-3 4 0 0zm28-3c0-9-23 5 0 0zm170-2c9-22-14 10 0 0zm-376 0c-4-8-1 6 0 0zm7-1c-3-3-1 6 0 0zm183 1c3-8-9 5 0 0zm-44-2c-1-4-2 3 0 0zm35-1c0-9-5 6 0 0zm-42-1c-4-5-3 4 0 0zm28-2c-3-3-1 6 0 0zm27 1c-2-5-2 5 0 0zm9-1c-13-7 2 6 0 0zm169 0c-2-5-2 6 0 0zm-368 0c1-14-14 6 0 0zm225-1c-1-4-3 2 0 0zm153-3c-4-3 0 5 0 0zm-191-3l-8-1 8 1zm-59 2c-4-5-3 4 0 0zm-124-1c1-4-4 0 0 0zm220 0c-4-7-4 4 0 0zm19 0c-3-5-3 4 0 0zm-34-4c-2-13-2 10 0 0zm-11-1h-3 3zm31 0c2-11-8 5 0 0zm35 1c-4-4-2 3 0 0zm19-1c-3-4-1 5 0 0zm-135-3c-6-2 0 5 0 0zm-136 0c-1-4-3 2 0 0zm130-1c1-5-9 6 0 0zm22-1c-21-15 8 10 0 0zm109 0c0-9-5 8 0 0zm-278 0c-2-12-8 4 0 0zm292 1c-4-8-11 0 0 0zm144 0c-5-5-4 4 0 0zm-284-5c21-8 49-24 10-7 3-2-27 11-10 7zm13 0c-11-5-3 5 0 0zm33 0l-3-1 3 1zm48 0c17-12-19-21 0 0zm19 1c-4-4-2 3 0 0zm-242-3c57-27-48-90-11-23 5 11-15 33 11 23zm-6-1c-11-5 11 0 0 0zm159 1c-11-6-4 6 0 0zm-173 0c2-8-5 6 0 0zm191 1c3-17-14 8 0 0zm24-2c-12-19-11 9 0 0zm61 2c8-11-14 3 0 0zm-42-4c10-25-19 8 0 0zm-105 0c-4-6-3 5 0 0zm-128-3c-1-5-2 6 0 0zm263 0c2-10-8 5 0 0zm-45-1c-4-6-3 6 0 0zm53-2c-5-13-10 5 0 0zm-113-2c-10-8-10 4 0 0zm277 1c-3-5-4 4 0 0zm-244-3c9-23-15 5 0 0zm59 1c-3-8-3 3 0 0zm-89-4c2-8-5 6 0 0zm55 1c-4-12-4 3 0 0zm14-2c-4-4-2 6 0 0zm19-2c28-12-32 0 0 0zm112 1c-7-14-3 7 0 0zm-89 0c-3-3-1 2 0 0zm-37-2c-2-5-3 4 0 0zm-48-4c-5-14-5 13 0 0zm13 1c-6 0 1 4 0 0zm121-3c27-7 47-30 5-11-4 1-10 8-5 11zm-45 0c27-12-23-12 0 0zm70-2c-1-5-4 6 0 0zm-190-4c-6-5 0 8 0 0zm19 2c-2-4-2 3 0 0zm68-2c-1-3-4 5 0 0zm-55 0c-2-4-2 3 0 0zm-16-2c-4-5-3 4 0 0zm96-5c2-11-12 9 0 0zm-96-3c-9-14-9 10 0 0zm117-1c4-12-23 13 0 0zm-13-4c15-18 27-44 3-14 4 5-17 19-3 14zm-101 0c-3-6-3 6 0 0zm139-3c14-10-8-3 0 0zm-141-4l-1 3 1-3zm98-3c-2-6-4 6 0 0zm56-3c-9-6 0 6 0 0zm-165-7c-4-7-4 16 0 0zm165 0c-6-1 5 6 0 0zm-252 1c0-9-16 6 0 0zm82-1c2-11-7 6 0 0zm-207-2c13-12-11 2 0 0zm-9-2c-2-4-2 3 0 0zm136-4c-6-2 1 7 0 0zm313 3c-1-4-2 3 0 0zm10-1c-2-4-2 3 0 0zm-132-2c-3-5-3 4 0 0zm68-2c-3-3-1 6 0 0zm-35 1c-1-4-2 3 0 0zm40-3c-14-10-23 4 0 0zm50-1c5-8-10 6 0 0zm41-3c36-12 26-77 30-58-7-41-62-9-63 10-19-35-53 43-3 17 37-12-16 39 30 34l6-3zm-9-3c2-4 1 3 0 0zm-7-27h2-2zm-17-2c-2-8 6 0 0 0zm28-3c7-11 6 2 0 0zm8-25c6-17 13 2 0 0zm16-3h2-2zm-26-2c-8-10 8 1 0 0zm21-5c-1-8 6 7 0 0zm-133 69c3-27-15 20 0 0zm6 2c11-16 11 5 0 0zm169 2c34-21-9-14 0 0zm-195-6c4-11-15 14 0 0zm75 0c3-6-8 5 0 0zm-222 0c-2-4-2 3 0 0zm131-1c-4-8-1 5 0 0zm222 1c-3-5-3 4 0 0zm-450-3c-1-4-2 3 0 0zm280-1c-2-5-2 6 0 0zm-269-2c-3-4-3 5 0 0zm226 1c-4-13-14 5 0 0zm221-4c-7-4-4 8 0 0zm14 2c-12-6 8 8 0 0zm-469-4c-4 0-1 8 0 0zm319 2c-2-7-2 3 0 0zm-16-2c-4-6-3 6 0 0zm-20 0c-3-13-8 3 0 0zm32 0c-3-5-3 4 0 0zm16-3c-9-10-10 9 0 0zm130 1c-1-7-3 6 0 0zm-456-2c-2-4-2 3 0 0zm471-2c11-7-8 2 0 0zm-201-2c-8-6 5 8 0 0zm230 2c1-8-9 5 0 0zm-192-2c-2-4-2 3 0 0zm186-1c-3-5-3 5 0 0zm-278 0c-1-4-2 3 0 0zm239-1c-4-5-4 6 0 0zm-39-2c-1-10-5 2 0 0zm-297 0c-1-4-6 4 0 0zm103-2c-4-4-2 7 0 0zm29 1c-4-4-2 6 0 0zm214 0c-2-5-2 5 0 0zm23-1c-3-3-1 6 0 0zm-492-4c-5-6-11 2 0 0zm238-2c-4-19-8 13 0 0zm-24 2c-2-18-16 10 0 0zm-126-1c-3-8-3 4 0 0zm399-1c0-12-2 6 0 0zm-495-1c-4-6-3 6 0 0zm275 0c-2-5-2 5 0 0zm164 1c-4-5-3 4 0 0zm-323-2c-4-5-4 5 0 0zm317 0c-2-5-2 6 0 0zm24-2c-7-27-3 8 0 0zm-350-1c-2-8-7 5 0 0zm381 0c-1-6-3 3 0 0zm-50-2c14-19-10 5 0 0zm6 1c-1-4-3 2 0 0zm-256-3c-2-4-1 3 0 0zm-195-3c-3-3-1 6 0 0zm96 2c0-5-6 2 0 0zm26-1c-4-4-2 6 0 0zm317 1c-1-4-3 2 0 0zm-456-4c-5 2 3 3 0 0zm8-1c7-32-12 7 0 0zm135 1c-2-5-2 5 0 0zm-123-1c-4-15-10 1 0 0zm115-1c-2-4-3 5 0 0zm74-1c-10-7 3 9 0 0zm-69 1c-4-4-2 6 0 0zm133 1c-3-5-4 4 0 0zm15-1c-2-5-2 6 0 0zm-107-5c-5-6 3 9 0 0zm342 0c-4-4-2 6 0 0zm-403-2c-7-6 1 7 0 0zm68 1c21-4-7-14 0 0zm68-2c-5-2 2 6 0 0zm-82-1c-4-10-3 6 0 0zm31-1c-2 2 5 3 0 0zm252 1c-3-5-3 4 0 0zm-446-3c-2-8-4 9 0 0zm169 2c-1-4-2 3 0 0zm273-3c-7-26-18 10 0 0zm-6-3c2-4 2 3 0 0zm69 1c8-16-17 18 0 0zm-226 4c-1-4-2 3 0 0zm-194-1c-5-8-4 4 0 0zm24-2c19 2-16-7 0 0zm57 0c-1-4-2 3 0 0zm-166-5c-3-3-1 6 0 0zm173-1c-6-2 1 6 0 0zm-195 1c-1-4-3 2 0 0zm304 0c-2-4-2 3 0 0zm213-4c-3-8-3 7 0 0zm36-5c19-8-18 0 0 0zm-323-2c4-16-12 4 0 0zm-222-3c-3-5-2 6 0 0zm380 0c-25-29-40 5 0 0zm-402-1c-2-4-1 3 0 0zm-3-6c-9-22-17 1 0 0zm476-6c-3-9-1 11 0 0zm-62 0c54-30-85-28-26 0 8-1 18 6 26 0zm-431-5c-11-8 9 13 0 0zm33 0c-3-5-6 3 0 0zm276-2c-4-6-1 5 0 0zm-277-6c-6 0 3 6 0 0zm9 2c-3-8-8 6 0 0zm246-3c-4-5-3 4 0 0zm19-4c-3-5-2 6 0 0zm-17-4c-2-4-1 3 0 0zm-7-10c-4-3-2 6 0 0zm117 0c-1-4-2 3 0 0zm-23-2c-10-13-7 7 0 0zm-64-4c-2-4-2 3 0 0zm70-2c-6-5 3-7 0 0zm-15 0c-1-10-4 6 0 0zm-41 0c-4-5-3 4 0 0zm53-6c-1-4-2 3 0 0zm-352-5c8-10-10-2 0 0zm344-3c0-7-6 4 0 0zm-29-4h-3 3zm-48-1c-1-4-2 3 0 0zm116-7c-1-5-4 6 0 0zm7 1c-3-5-4 4 0 0zm-3-6c-1-8-9 4 0 0zm3 0c-2-4-2 3 0 0zm61-3c-4-6-3 8 0 0zm-29-4c0-8-17 10 0 0zm4-6c-1-17-9 13 0 0zm-27-1c-6-2 0 5 0 0zm102 392c-2-5 7 4 0 0zm-481-1c-4-8 5 4 0 0zm4-4c-1-11 7 10 0 0zm24 2c2-6 3 4 0 0zm133-5c6-6 4 6 0 0zm19 0c5-5 5 4 0 0zm-6-5c2-9 3 8 0 0zm-157 0c-8-15 11 4 0 0zm-11-3c3-4 3 3 0 0zm435 0c0-6 6-4 0 0zm-48-3c-4-14 7 6 0 0zm-381-3c7-17 8 0 0 0zm440-4c2-4 1 3 0 0zm-240-1c3-4 3 3 0 0zm-182-2c5-10 11 5 0 0zm135 1c5-5 6 4 0 0zm9 0c-6-6 9 0 0 0zm426-2c-30-14 17 3 0 0zm-218 0c-10-8 10 5 0 0zm-569-4c-10-23-35-55 6-29 14 9 8 24-6 29zm4-18c-6-3 1 11 0 0zm5-4c-1-4-2 3 0 0zm184 23c3-7 4 1 0 0zm5-1c4-12 6 4 0 0zm253 0c3-4 3 3 0 0zm-349-2c1-14 12 2 0 0zm82 1c3-4 2 3 0 0zm508-4c2-9 1 9 0 0zm4 2c6-12 11 6 0 0zm80-1c-1-7 6 2 0 0zm-59-1c3-4 1 3 0 0zm-605-3c3-5 3 5 0 0zm603-2c-24-8 20-1 0 0zm45 1c6-10 6 3 0 0zm-99-1c-35-1-39-17-1-16 42 0 42 14 1 16zm16-5c-4-4-2 3 0 0zm-24-6c-4-2 0 4 0 0zm11-2c-2-4-1 3 0 0zm36 12c4-25 15-9 0 0zm-4-2c-9-7 9-1 0 0zm63-2c2-12 8 7 0 0zm-38-2c-15-9 15-14 0 0zm-104-1c-2-8 8 2 0 0zm109-1c-5-11 13 9 0 0zm-546-3c5-3 3 6 0 0zm553 1c-5-6 16 4 0 0zm-251-2c3-8 11 2 0 0zm129 0c7-10 10 4 0 0zm72-1c-15-10 6-3 0 0zm-234-1c-1-9 12 3 0 0zm171-2c3-2 2 4 0 0zm122-1c2-12 7 2 0 0zm-284 0c4-5 4 4 0 0zm28-1c1-9 5 4 0 0zm-20 0c1-8 7 4 0 0zm234-1c2-7 7 4 0 0zm-106 0h2-2zm137-2c1-8 10 8 0 0zm-259-1c4-5 2 3 0 0zm-325-5c8-7-2 6 0 0zm-184-1c-10-12 17 6 0 0zm867 0c3-2 2 4 0 0zm-894-9c1-6 3 9 0 0zm198 0c6-7 0 6 0 0zm146 0c5-12 19 2 0 0zm-359-2c-1-7 6 2 0 0zm1113-1c3-4 3 3 0 0zm-207-1c3-5 1 4 0 0zm14-1c2-6 6 5 0 0zm-511-5c3-4 2 3 0 0zm-193-56c-6-8 13 7 0 0zm870 1c-3-11 6-1 0 0zm-878-8c3-2 2 4 0 0zm-18-5c8-15 20 5 0 0zm3-8c2-5 3 4 0 0zm31-17c0-13 4 6 0 0zm582 1c5-19 7 6 0 0zm-135-1c-6-5 9 1 0 0zm191-5c-1-7 5 6 0 0zm-404-4c0-6 5 1 0 0zm406-1c-16-7-46-8-5-10 8-6 15 13 5 10zm137 0c4-5 6 5 0 0zm-6-1c-17-9 9-1 0 0zm-772-4c8-1-1-7 0 0zm655 1c-6-7 10 3 0 0zm-64-2c-26-8 23-12 0 0zm-645-2c3-5 2 4 0 0zm815-2c-1-13 5 8 0 0zm-161 0c-4-7 7 3 0 0zm49 1c3-4 1 3 0 0zm18-1c7-9 1 7 0 0zm-669-3c3-4 2 3 0 0zm614-1c6-4 4 6 0 0zm64 0c-3-8 8 4 0 0zm-726-1c3-5 2 4 0 0zm6 0c4-5 4 4 0 0zm618-1c2-5 3 4 0 0zm32-2c-10-11 10 3 0 0zm21 0c13-25 36-9 0 0zm119 0c5-6 3 6 0 0zm-60 0c2-5 3 4 0 0zm9-3c2-6 6 7 0 0zm-125-1c18-28 23 4 0 0zm26 0c-22 0 13-6 0 0zm107 1c-7-10 13 1 0 0zm10 0c-12-13 21 3 0 0zm11-2c-6-16 13 9 0 0zm-82 0c4-5 3 6 0 0zm221 0c14-25 13 5 0 0zm-253-2c6-4 6 6 0 0zm-700-2c2-4 2 3 0 0zm823 0c-2-6 9 4 0 0zm-709-2c-62-3-1-32 6 0h-6zm0-11c-3-5-3 6 0 0zm571 11c-27-17 13-4 0 0zm12-1c-4-8 12 4 0 0zm14 1c1-4 2 3 0 0zm35 0c3-5 2 4 0 0zm221-2c7-5-4 5 0 0zm-138-1c-1-7 4 4 0 0zm-79 0c3-4 2 3 0 0zm-460-1c4-5 4 4 0 0zm532 0c1-8 6 3 0 0zm-106-2c6-11 5 4 0 0zm102-2c-1-5 5 5 0 0zm-42 0c12-17 25 5 0 0zm23-1c4-9 9 2 0 0zm9-2c14-20 13-2 0 0zm-90-2c-2-8 9 1 0 0zm41-1c3-2 2 4 0 0zm-800-1c-15-2 9-6 0 0zm17-1c3-6 4 5 0 0zm259 1c2-4 1 3 0 0zm536-2c-19-7 21 0 0 0zm-45 0c2-6 5 0 0 0zm-778-3c3-5 3 6 0 0zm125 1h2-2zm26-2c-7-10 10 7 0 0zm122 1c3-7 3 6 0 0zm557 0c10-7-4 7 0 0zm-836 0c0-7 6 2 0 0zm266-2c-2-9 10 5 0 0zm616 0c3-5 2 4 0 0zm-887-3c-1-5 5 3 0 0zm11-1c-1-9 8 4 0 0zm237-2c4-6 3 9 0 0zm-261-3c-11-18-85-72-27-44 4-1 39 71 27 44zm275 0c2-7 4 4 0 0zm-109-1c-5-7 7 5 0 0zm-151 0c-6-8 8-3 0 0zm448-1c-1-5 5 3 0 0zm-8-5c-2-6 7 1 0 0zm12-1c2-6 5 2 0 0zm-277-2c-6-9 13 7 0 0zm240 2c-3-5 4 1 0 0zm3 0c4-5 3 4 0 0zm-201-1c4-10 9 5 0 0zm506-2c0-9 9 3 0 0zm88-3c-3-12-10-3 0 0zm-404-1c-2-19 8 10 0 0zm9 0c-5-9 12 8 0 0zm9-4c-2-12 10 9 0 0zm-8-1c-1-5 5 5 0 0zm27 0c-9-7 15 3 0 0zm7 0c3-5 1 4 0 0zm-176-2c5-8 5 7 0 0zm182 0c10-18 15 0 0 0zm-194-1c-3-7 11 6 0 0zm-34-2c2-6 3 4 0 0zm177-1c12-20-1 12 0 0zm40 1c3-4 2 3 0 0zm-28-2c3-7 1 5 0 0zm11 1c-1-7 6 2 0 0zm-194-1c-2-4 4 0 0 0zm8 0c2-4 1 3 0 0zm212-1c1-7 4 4 0 0zm-14-1c3-5 1 5 0 0zm52-1c5-16 5 7 0 0zm-33 0c-3-5 4 1 0 0zm-494-5c-4-5 5 1 0 0zm269 0c1-4 2 3 0 0zm-10-6c-17-12 10 2 0 0zm250-1c2-2 0 5 0 0zm20 1c3-4 2 3 0 0zm-257-3c3-4 3 3 0 0zm261-4c5-11 9 4 0 0zm-266 0c-5-10 7-1 0 0zm-287-1c-1-18 9 4 0 0zm493-2c3-5 3 6 0 0zm409 0c7-10 10-1 0 0zm-415-3c2-2 0 5 0 0zm-490-4c7-15 7 9 0 0zm723 0c18-12 28 5 0 0zm-11 0c4-5 11 5 0 0zm-701-1c-2-6 7 1 0 0zm822-2c5-6-1 6 0 0zm-614-2c2-2 0 5 0 0zm299-1c2-19 6 7 0 0zm-506-1c-20-24 11 3 0 0zm518 1c4-13 1 6 0 0zm217 1c2-6 3 4 0 0zm89 0c5-14 21-4 0 0zm-838-2h2-2zm195-1c3-2 2 4 0 0zm33 1c1-4 2 3 0 0zm332-4c4-6 3 8 0 0zm-292-2c3-7 6 7 0 0zm-272 0c1-12 14 3 0 0zm58-2c-2-8 11 5 0 0zm697-1c-4-17 10 10 0 0zm-492 1c-11-25 14-4 0 0zm475 0c1-4 2 3 0 0zm-470-2c3-6 4 5 0 0zm588 0c26-27 46-12 0 0zm-804-1c-6-7 9 4 0 0zm182 1c1-7 6 2 0 0zm-169-1c-12-11 19 4 0 0zm670-1c3-2 2 4 0 0zm-690-2c-7-17 25 5 0 0zm-46 0c1-5 4 2 0 0zm730-2c1-11 21 7 0 0zm-555-3c-43-14 29-6 0 0zm495-2c-28-27 41 3 0 0zm-640-1c-32-34-13-29 0 0zm738 0c4-9 21-1 0 0zm15 1c3-6 7 3 0 0zm-786-1c3-4 3 3 0 0zm268-1c-4-30 19-11 0 0zm-207 0c-34-14-48-58-10-25 19 34 77 24 10 25zm-8-14c-5 2 3 3 0 0zm698 12c3-5 3 6 0 0zm-710-2c-9-11 11 3 0 0zm114 0c-4-5 16 4 0 0zm630 0c2-5 3 4 0 0zm76-2c-18-27 39-11 0 0zm30 1c2-6 7 4 0 0zm-665-1c3-4 3 3 0 0zm429 0c-3-5 6 2 0 0zm142-2h2-2zm100 0c3-5 2 4 0 0zm-618-1c24-17 50-10 7-1l-7 1zm141-3c4-3 0 8 0 0zm339 1c3-8 9 7 0 0zm42 1c4-9 6 4 0 0zm9-2c1-10 12 2 0 0zm237-2c33-15 40 8 0 0zm202 3c4-5 3 4 0 0zm-1216-1c-1-12 5 3 0 0zm735 0c6-21 16-15 0 0zm156-2c33-48 10 5 0 0zm116 0c-4-6 6 3 0 0zm63 0c3-5 3 5 0 0zm-165-1c-10-15 20 2 0 0zm-21-2c4-6 10 2 0 0zm-97-1c3-5 1 4 0 0zm260 0c4-5 4 4 0 0zm-815-2c-2-12 12 4 0 0zm520 1c2-4 1 3 0 0zm298-2c8-18 21 8 0 0zm-839-4c-1-18 7 14 0 0zm699 1c2-5 4 4 0 0zm-1097-1c2-2 0 5 0 0zm1102 1h2-2zm4-2l3-2-3 2zm127 1c3-4 3 3 0 0zm-1227-3c-4-20 14 9 0 0zm412 1c-10-18 14 1 0 0zm297 1c3-4 3 3 0 0zm220-2c10-18 10 0 0 0zm145 2c5-9 5 0 0 0zm-463-4c3-4 3 5 0 0zm496 1c4-5 4 4 0 0zm-484-1c-24-7 7-21 0 0zm117 0c-2-6 6 2 0 0zm-103-1c7-16 24-2 0 0zm25-1c-12-10 13 4 0 0zm-278-1c-5-6 10 2 0 0zm322 0c3-8 3 4 0 0zm392 0c3-4 3 3 0 0zm-238-2c9-9 18 8 0 0zm-6-1c-1-5 5 3 0 0zm-185-2c8-7 1 6 0 0zm46 0c3-2 2 4 0 0zm168 0c4-3 12 4 0 0zm-255-3c-6-15 5 4 0 0zm81 1c3-8 10-3 0 0zm25-1c4-4 2 5 0 0zm8 1c3-7 3 3 0 0zm135 0c2-4 1 3 0 0zm-219-1c0-10 8 0 0 0zm-26-2c2-7 4 6 0 0zm115 0c2-6 3 4 0 0zm-137-1c4-23 29-5 0 0zm116-3c14-20 38 4 5-2 1 3-5 6-5 2zm-5 0c3-2 2 4 0 0zm214-1c23-24 17 7 0 0zm-529-2c3-2 2 4 0 0zm416-1c-4-5 5 1 0 0zm-207-3c0-6 4 2 0 0zm339-1c12-26 90-56 76-56-16 27-11 17-30 33-16 4-34 10-46 23zm-187 0c2-14 16 2 0 0zm-392-1c2-6 4 3 0 0zm228-2c-2-9 8 4 0 0zm151 0c3-5 4 4 0 0zm6 0c4-5 4 4 0 0zm-360-1c2-6 4 3 0 0zm210-1c2-8 4 5 0 0zm5-2c-5-21 12 13 0 0zm8 1c3-3 6 5 0 0zm359-1c-1-5 9 2 0 0zm-8-1c3-4 3 3 0 0zm-580-4c-8-13 16 13 0 0zm592 1c2-6 6 1 0 0zm23 0c1-11 13 5 0 0zm-383-2c2-2 0 5 0 0zm353 0c2-5 4 4 0 0zm5-2c1-4 2 3 0 0zm-381-2c2-5 4 4 0 0zm408 0c5-8 5 3 0 0zm-635-2c3-2 2 4 0 0zm642 1c4-5 5 4 0 0zm-628-3c-9-12 6 2 0 0zm637 0c0-7 3 4 0 0zm-1-5c1-13 8 4 0 0zm-654 0c1-7 6-1 0 0zm646 0c3-4 3 3 0 0zm21-1c-2-4 4 0 0 0zm-448-7c2-2 0 5 0 0zm442 1c3-4 2 3 0 0zm-426-6c-4-7 7 4 0 0zm-17-4c1-7 6 1 0 0zm18-2c3-4 3 3 0 0zm388-2c4-6 4 5 0 0zm-409-2c-23-27 17-18 0 0zm6-7c-3-5-3 4 0 0zm11 4c-4-6 8 2 0 0zm454-1c2-15 5 4 0 0zm122-1c3-4 2 3 0 0zm-114-5c5-5 4 4 0 0zm-705-4c3-5 2 4 0 0zm243-2c4-5 4 6 0 0zm-249 0c3-4 3 3 0 0zm232-5c-11-25 11 3 0 0zm446 1c5-14 8 2 0 0zm-429-1c1-4 2 3 0 0zm-35-9c-2-4 4 0 0 0zm468-1c-3-11 10 3 0 0zm-472-2c1-4 2 3 0 0zm7-2c3-2 2 4 0 0zm3-1c1-9 9 10 0 0zm16 2c-3-7 9 3 0 0zm562-2c7-14 8 1 0 0zm10-1c1-8 8 1 0 0zm-573-5c1-5 2 6 0 0zm453-1c6-20 2 10 0 0zm-484-2c-22-22-2-24 0 0zm195 0c-34 0-39-39-4-10 0 1 15 18 4 10zm9 0c2-15 23 12 0 0zm407 0c3-4 2 3 0 0zM754 12c-1-5 5 3 0 0zm196 0c3-5 1 5 0 0zm238 0c3-5 2 4 0 0zm-443-2c3-4 3 5 0 0zm460-1c-14-5 14 1 0 0zM737 7c-2-19 6 8 0 0zm205-1c4-4 2 3 0 0zm200-1c-8-13 13 5 0 0zm48-1c3-5 4 6 0 0zM726 3c7-6-2 6 0 0zm458-2c-11-13 17 8 0 0zm-53 0c-5-13 9 4 0 0zM501 1c-2-6 7 1 0 0zm191-1c-8-8 17 4 0 0zm19-1c2-4 2 3 0 0zm501-2c3-8 1 7 0 0zm-17 1c4-22 14-2 0 0zm-22-5c-6-12 16 0 0 0zm35-2c12-9 6 2 0 0zm-272-1c0-7 5 6 0 0zm970 0c2-5 3 4 0 0zM688-11c5-4 5 3 0 0zm26 0c3-4 1 3 0 0zm225 0c3-4 2 3 0 0zm196 0c1-3 6 2 0 0zm7 0c1-4 2 3 0 0zm41 0c2-4 2 3 0 0zm4 0c4-4 4 2 0 0zm7 0c2-3 5 3 0 0zm27-1c6-2 6 3 0 0zm7 1c2-3 2 4 0 0zm674 0c3-4 2 3 0 0zm16 0c4-4 4 2 0 0zm135 0c1-4 2 3 0 0z" fill="#274448"/></svg>